<?xml version="1.0" standalone="no"?>
<!DOCTYPE svg PUBLIC "-//W3C//DTD SVG 1.1//EN" "http://www.w3.org/Graphics/SVG/1.1/DTD/svg11.dtd">
<svg xmlns="http://www.w3.org/2000/svg">
<metadata>Copyright (C) 2014 by original authors @ fontello.com</metadata>
<defs>
<font id="beyondpad" horiz-adv-x="1000" >
<font-face font-family="beyondpad" font-weight="400" font-stretch="normal" units-per-em="1000" ascent="850" descent="-150" />
<missing-glyph horiz-adv-x="1000" />
<glyph glyph-name="tag" unicode="&#xe800;" d="m0 475v232q0 29 21 50t50 22h233q29 0 65-15t57-36l399-399q20-21 20-50 0-30-20-51l-274-274q-22-21-51-21-30 0-50 21l-399 399q-21 21-36 57t-15 65z m107 125q0-30 21-50t51-21 50 21 21 50-21 51-50 20-51-20-21-51z" horiz-adv-x="857.1" />
<glyph glyph-name="tags" unicode="&#xe801;" d="m0 475v232q0 29 21 50t50 22h233q29 0 65-15t57-36l399-399q20-21 20-50 0-30-20-51l-274-274q-22-21-51-21-30 0-50 21l-399 399q-21 21-36 57t-15 65z m107 125q0-30 21-50t51-21 50 21 21 50-21 51-50 20-51-20-21-51z m286 179h125q29 0 65-15t57-36l399-399q21-21 21-50 0-30-21-51l-274-274q-22-21-51-21-20 0-33 8t-29 25l262 262q21 21 21 51 0 29-21 50l-399 399q-21 21-57 36t-65 15z" horiz-adv-x="1071.4" />
<glyph glyph-name="bookmark" unicode="&#xe802;" d="m0-3v719q0 19 11 35t29 23q12 5 25 5h585q12 0 24-5 19-8 29-23t11-35v-719q0-19-11-35t-29-23q-10-4-24-4-27 0-47 18l-246 236-246-236q-20-19-46-19-13 0-25 5-18 7-29 23t-11 35z" horiz-adv-x="714.3" />
<glyph glyph-name="bookmark-empty" unicode="&#xe803;" d="m0-3v719q0 19 11 35t29 23q12 5 25 5h585q12 0 24-5 19-8 29-23t11-35v-719q0-19-11-35t-29-23q-10-4-24-4-27 0-47 18l-246 236-246-236q-20-19-46-19-13 0-25 5-18 7-29 23t-11 35z m71 17l237 227 49 47 50-47 236-227v693h-572v-693z" horiz-adv-x="714.3" />
<glyph glyph-name="search" unicode="&#xe804;" d="m0 386q0 80 31 152t84 126 125 84 153 31 152-31 126-84 84-126 31-152q0-123-69-223l191-191q21-21 21-51 0-29-22-50t-50-21q-30 0-50 21l-191 191q-100-69-223-69-80 0-153 31t-125 83-84 126-31 153z m143 0q0-103 73-177t177-73 176 73 74 177-74 176-176 74-177-74-73-176z" horiz-adv-x="928.6" />
<glyph glyph-name="picture" unicode="&#xe805;" d="m0 11v678q0 37 26 63t63 27h893q37 0 63-27t26-63v-678q0-37-26-63t-63-27h-893q-36 0-63 27t-26 63z m71 0q0-8 6-13t12-5h893q7 0 13 5t5 13v678q0 8-5 13t-13 5h-893q-7 0-12-5t-6-13v-678z m72 53v107l178 179 90-89 285 285 233-232v-250h-786z m0 465q0 44 31 75t76 32 76-32 31-75-31-76-76-32-76 32-31 76z" horiz-adv-x="1071.4" />
<glyph glyph-name="star-empty" unicode="&#xe806;" d="m0 489q0 21 31 26l280 40 126 254q11 23 27 23t28-23l125-254 280-40q32-5 32-26 0-12-15-27l-203-197 48-279q1-4 1-12 0-28-23-28-10 0-22 7l-251 132-250-132q-13-7-23-7-11 0-17 9t-6 19q0 4 1 12l48 279-203 197q-14 15-14 27z m123-34l171-165-41-235 211 111 211-111-41 235 171 165-235 35-106 213-105-213z" horiz-adv-x="928.6" />
<glyph glyph-name="star" unicode="&#xe807;" d="m0 489q0 21 31 26l280 40 126 254q11 23 27 23t28-23l125-254 280-40q32-5 32-26 0-12-15-27l-203-197 48-279q1-4 1-12 0-11-6-19t-17-9q-10 0-22 7l-251 132-250-132q-13-7-23-7-11 0-17 9t-6 19q0 4 1 12l48 279-203 197q-14 15-14 27z" horiz-adv-x="928.6" />
<glyph glyph-name="lock" unicode="&#xe808;" d="m0 46v322q0 22 16 38t38 15h17v108q0 102 74 176t176 74 177-74 73-176v-108h18q23 0 38-15t16-38v-322q0-22-16-37t-38-16h-535q-23 0-38 16t-16 37z m179 375h285v108q0 59-42 101t-101 41-101-41-41-101v-108z" horiz-adv-x="642.9" />
<glyph glyph-name="lock-open" unicode="&#xe809;" d="m0 46v322q0 22 16 38t38 15h375v108q0 103 73 176t177 74 176-74 74-176v-143q0-15-11-25t-25-11h-36q-14 0-25 11t-11 25v143q0 59-41 101t-101 41-101-41-42-101v-108h53q23 0 38-15t16-38v-322q0-22-16-37t-38-16h-535q-23 0-38 16t-16 37z" horiz-adv-x="928.6" />
<glyph glyph-name="home" unicode="&#xe80a;" d="m15 348q0 8 6 12l401 334q18 15 42 15t43-15l136-114v109q0 8 5 13t13 5h107q8 0 13-5t5-13v-227l122-102q5-5 6-12t-4-13l-34-41q-5-5-12-7h-2q-7 0-12 4l-386 322-386-322q-7-4-13-4-7 2-12 7l-35 41q-4 5-3 13z m128-319v267q0 1 0 2t0 2l321 264 321-264q1-1 1-4v-267q0-15-11-26t-25-10h-214v214h-143v-214h-214q-15 0-25 10t-11 26z" horiz-adv-x="928.6" />
<glyph glyph-name="info" unicode="&#xe80b;" d="m0 29v71q0 15 11 25t25 11h35v214h-35q-15 0-25 11t-11 25v71q0 15 11 25t25 11h214q15 0 25-11t11-25v-321h35q15 0 26-11t10-25v-71q0-15-10-26t-26-10h-285q-15 0-25 10t-11 26z m71 607v107q0 14 11 25t25 11h143q15 0 25-11t11-25v-107q0-15-11-25t-25-11h-143q-14 0-25 11t-11 25z" horiz-adv-x="357.1" />
<glyph glyph-name="doc-text" unicode="&#xe80c;" d="m0-96v892q0 23 16 38t38 16h500q22 0 49-11t42-27l174-174q16-16 27-42t11-50v-642q0-23-15-38t-38-16h-750q-23 0-38 16t-16 38z m71 17h715v572h-232q-23 0-38 15t-16 38v233h-429v-858z m143 161v36q0 8 5 13t13 5h393q8 0 13-5t5-13v-36q0-8-5-13t-13-5h-393q-8 0-13 5t-5 13z m0 143v36q0 8 5 13t13 5h393q8 0 13-5t5-13v-36q0-8-5-13t-13-5h-393q-8 0-13 5t-5 13z m0 143v36q0 7 5 12t13 5h393q8 0 13-5t5-12v-36q0-8-5-13t-13-5h-393q-8 0-13 5t-5 13z m357 196h210q-5 16-12 23l-175 175q-6 7-23 12v-210z" horiz-adv-x="857.1" />
<glyph glyph-name="doc" unicode="&#xe80d;" d="m0-96v892q0 23 16 38t38 16h500q22 0 49-11t42-27l174-174q16-16 27-42t11-50v-642q0-23-15-38t-38-16h-750q-23 0-38 16t-16 38z m71 17h715v572h-232q-23 0-38 15t-16 38v233h-429v-858z m500 643h210q-5 16-12 23l-175 175q-6 7-23 12v-210z" horiz-adv-x="857.1" />
<glyph glyph-name="trash" unicode="&#xe80e;" d="m0 582v36q0 8 5 13t13 5h172l39 93q9 21 31 35t44 15h178q22 0 44-15t30-35l39-93h173q8 0 13-5t5-13v-36q0-8-5-13t-13-5h-54v-529q0-46-26-80t-63-34h-464q-37 0-63 33t-27 79v531h-53q-8 0-13 5t-5 13z m143-547q0-12 4-22t8-15 6-5h464q2 0 6 5t8 15 4 22v529h-500v-529z m71 83v321q0 8 5 13t13 5h36q8 0 13-5t5-13v-321q0-8-5-13t-13-5h-36q-8 0-13 5t-5 13z m54 518h250l-27 65q-4 5-9 6h-177q-6-1-10-6z m89-518v321q0 8 5 13t13 5h36q8 0 13-5t5-13v-321q0-8-5-13t-13-5h-36q-8 0-13 5t-5 13z m143 0v321q0 8 5 13t13 5h36q7 0 12-5t5-13v-321q0-8-5-13t-12-5h-36q-8 0-13 5t-5 13z" horiz-adv-x="785.7" />
<glyph glyph-name="emo-happy" unicode="&#xe80f;" d="m261 800c-60 0-109-65-109-144 0-80 49-145 109-145s110 65 110 145c0 79-49 144-110 144z m477 0c-61 0-110-65-110-144 0-80 49-145 110-145 60 0 110 65 110 145 0 79-50 144-110 144z m208-599c-13 0-27-5-37-16-4-4-8-8-12-12-111-109-253-164-396-165-142-2-285 50-396 155l-3 3-12 12c-21 21-54 20-75-1-20-21-20-55 1-76 3-4 8-8 14-14l3-3c132-124 301-186 469-184 169 1 337 67 468 195 5 5 9 10 14 14 20 22 20 56-1 77-10 10-23 15-37 15z" horiz-adv-x="999" />
<glyph glyph-name="attention" unicode="&#xe810;" d="m9 27l429 786q9 17 26 27t36 10 36-10 27-27l428-786q20-35-1-70-10-17-26-26t-35-10h-858q-18 0-35 10t-26 26q-21 35-1 70z m411 519l9-255q0-5 6-9t13-3h103q8 0 13 3t6 9l10 257q0 6-5 10-7 6-14 6h-122q-7 0-14-6-5-4-5-12z m9-463q0-8 5-13t12-6h108q7 0 12 6t5 13v106q0 8-5 13t-12 5h-108q-7 0-12-5t-5-13v-106z" horiz-adv-x="1000" />
<glyph glyph-name="attention-circled" unicode="&#xe811;" d="m0 350q0 117 58 215t155 156 216 58 215-58 156-156 57-215-57-215-156-156-215-58-216 58-155 156-58 215z m348 271l10-346q0-6 5-10t14-4h103q8 0 13 4t6 10l10 346q0 7-6 10-5 5-13 5h-123q-8 0-13-5-6-3-6-10z m9-538q0-8 6-13t13-6h107q7 0 12 6t5 13v106q0 8-5 13t-12 5h-107q-8 0-13-5t-6-13v-106z" horiz-adv-x="857.1" />
<glyph glyph-name="attention-alt" unicode="&#xe812;" d="m55 743q-1 14 9 25t25 11h179q14 0 25-11t9-25l-15-429q-1-14-12-25t-25-11h-143q-14 0-25 11t-12 25z m16-714v125q0 14 11 25t25 10h143q15 0 25-10t11-25v-125q0-15-11-26t-25-10h-143q-14 0-25 10t-11 26z" horiz-adv-x="357.1" />
<glyph glyph-name="bell" unicode="&#xe813;" d="m0 64q106 90 160 222t54 278q0 92 54 146t147 66q-4 10-4 20 0 23 15 38t38 16 38-16 16-38q0-10-5-20 94-11 148-66t53-146q0-146 54-278t161-222q0-29-22-50t-50-21h-250q0-59-42-101t-101-42-101 42-42 101h-250q-29 0-50 21t-21 50z m102 0h724q-91 101-137 230t-46 270q0 143-179 143t-178-143q0-141-46-270t-138-230z m264-71q0-41 29-70t69-28q9 0 9 9t-9 8q-33 0-56 24t-24 57q0 9-9 9t-9-9z" horiz-adv-x="928.6" />
<glyph glyph-name="bell-alt" unicode="&#xe814;" d="m0 64q106 90 160 222t54 278q0 92 54 146t147 66q-4 10-4 20 0 23 15 38t38 16 38-16 16-38q0-10-5-20 94-11 148-66t53-146q0-146 54-278t161-222q0-29-22-50t-50-21h-250q0-59-42-101t-101-42-101 42-42 101h-250q-29 0-50 21t-21 50z m366-71q0-41 29-70t69-28q9 0 9 9t-9 8q-33 0-56 24t-24 57q0 9-9 9t-9-9z" horiz-adv-x="928.6" />
<glyph glyph-name="comment-empty" unicode="&#xe815;" d="m0 350q0 97 67 179t182 130 251 48 251-48 182-130 67-179-67-179-182-130-251-48q-39 0-81 4-110-97-257-135-27-8-63-12h-3q-8 0-15 6t-9 15v1q-2 2 0 6t1 6 2 5l4 5t4 5 4 5q4 5 17 19t20 22 17 22 18 28 15 33 15 42q-88 50-138 123t-51 157z m71 0q0-62 40-119t113-98l48-28-15-54q-13-50-39-96 85 36 154 96l24 21 31-3q39-5 73-5 114 0 213 39t157 105 59 142-59 142-157 105-213 39-213-39-157-105-59-142z" horiz-adv-x="1000" />
<glyph glyph-name="comment" unicode="&#xe816;" d="m0 350q0 73 40 139t106 114 160 76 194 28q136 0 251-48t182-130 67-179-67-179-182-130-251-48q-39 0-81 4-110-97-257-135-27-7-63-12-10-1-17 5t-10 16v1q-2 2 0 7t1 5 2 5l4 5t4 5 4 5q4 5 17 19t20 22 17 22 18 28 15 33 15 42q-88 50-138 123t-51 157z" horiz-adv-x="1000" />
<glyph glyph-name="volume-up" unicode="&#xe817;" d="m0 243v214q0 15 11 25t25 11h146l186 186q10 10 25 10t25-10 11-25v-608q0-14-11-25t-25-10-25 10l-186 186h-146q-15 0-25 11t-11 25z m507 9q0 12 6 20t17 14 19 12 16 20 6 32-6 32-16 20-19 12-17 14-6 20q0 15 10 26t25 10q9 0 14-3 39-15 63-52t24-79-24-79-63-52q-5-3-14-3-14 0-25 10t-10 26z m56-132q0 22 21 33 32 16 43 25 41 30 64 75t23 97-23 97-64 75q-11 9-43 25-21 11-21 33 0 14 10 25t25 11q7 0 15-3 78-33 125-105t48-158-48-158-125-105q-8-3-14-3-15 0-26 11t-10 25z m56-131q0 20 22 33 4 2 12 6t13 6q25 14 45 28 69 51 108 127t38 161-38 161-108 127q-20 14-45 28-4 3-13 6t-12 6q-22 13-22 33 0 14 10 25t26 11q7 0 14-3 118-51 189-158t71-236-71-236-189-158q-7-3-14-3-15 0-26 11t-10 25z" horiz-adv-x="928.6" />
<glyph glyph-name="volume-off" unicode="&#xe818;" d="m0 243v214q0 15 11 25t25 11h146l186 186q10 10 25 10t25-10 11-25v-608q0-14-11-25t-25-10-25 10l-186 186h-146q-15 0-25 11t-11 25z" horiz-adv-x="428.6" />
<glyph glyph-name="puzzle" unicode="&#xe819;" d="m0-7v571q1 0 10-2t19-2 12-2q83-14 136-14 45 0 66 20 25 24 25 49 0 13-8 29t-19 29-18 36-9 46q0 46 33 72t81 25q44 0 74-25t30-69q0-23-9-43t-21-33-22-31-9-40q0-32 23-47t57-14q36 0 101 8t91 9v-1q-1-1-2-9t-3-19-2-12q-13-84-13-137 0-45 19-65 25-26 50-26 12 0 28 8t30 19 36 19 46 8q46 0 71-33t26-80q0-45-25-75t-69-30q-23 0-43 10t-33 21-32 21-39 10q-62 0-62-69 0-22 9-65t8-64v-3q-12 0-18 0-19-2-54-7t-65-7-55-3q-34 0-57 15t-23 47q0 20 9 39t22 32 21 33 9 43q0 44-30 69t-75 25q-47 0-80-26t-33-71q0-24 9-46t18-36 19-30 8-28q0-25-25-50-21-19-66-19-53 0-136 13-5 1-16 2t-15 3l-7 1q-1 0-2 0-1 0-1 1z" horiz-adv-x="928.6" />
<glyph glyph-name="block" unicode="&#xe81a;" d="m0 352q0 87 34 167t91 137 137 91 167 34 166-34 137-91 91-137 34-167-34-168-91-137-137-92-166-34-167 34-137 92-91 137-34 168z m125 0q0-91 50-167l421 421q-75 50-167 50-83 0-153-40t-110-112-41-152z m138-256q76-50 166-50 62 0 118 25t96 65 65 97 24 119q0 90-48 164z" horiz-adv-x="857.1" />
<glyph glyph-name="down-dir" unicode="&#xe81b;" d="m0 457q0 15 11 25t25 11h500q14 0 25-11t10-25-10-25l-250-250q-11-11-25-11t-25 11l-250 250q-11 11-11 25z" horiz-adv-x="571.4" />
<glyph glyph-name="up-dir" unicode="&#xe81c;" d="m0 171q0 15 11 26l250 250q10 10 25 10t25-10l250-250q10-11 10-26t-10-25-25-10h-500q-15 0-25 10t-11 25z" horiz-adv-x="571.4" />
<glyph glyph-name="left-dir" unicode="&#xe81d;" d="m36 350q0 15 10 25l250 250q11 11 25 11t26-11 10-25v-500q0-14-10-25t-26-11-25 11l-250 250q-10 11-10 25z" horiz-adv-x="357.1" />
<glyph glyph-name="right-dir" unicode="&#xe81e;" d="m0 100v500q0 15 11 25t25 11 25-11l250-250q10-10 10-25t-10-25l-250-250q-11-11-25-11t-25 11-11 25z" horiz-adv-x="357.1" />
<glyph glyph-name="angle-double-right" unicode="&#xe81f;" d="m7 82q0 7 6 13l219 219-219 220q-6 5-6 12t6 13l28 28q5 6 13 6t12-6l260-260q6-5 6-13t-6-13l-260-260q-5-5-12-5t-13 5l-28 28q-6 6-6 13z m215 0q0 7 5 13l219 219-219 220q-5 5-5 12t5 13l28 28q6 6 13 6t13-6l260-260q5-5 5-13t-5-13l-260-260q-6-5-13-5t-13 5l-28 28q-5 6-5 13z" horiz-adv-x="571.4" />
<glyph glyph-name="angle-double-left" unicode="&#xe820;" d="m25 314q0 8 6 13l260 260q5 6 13 6t12-6l28-28q6-5 6-13t-6-12l-219-220 219-219q6-6 6-13t-6-13l-28-28q-5-5-12-5t-13 5l-260 260q-6 6-6 13z m214 0q0 8 6 13l260 260q6 6 13 6t13-6l28-28q5-5 5-13t-5-12l-220-220 220-219q5-6 5-13t-5-13l-28-28q-6-5-13-5t-13 5l-260 260q-6 6-6 13z" horiz-adv-x="571.4" />
<glyph glyph-name="angle-double-up" unicode="&#xe821;" d="m43 118q0 7 6 13l260 260q5 5 12 5t13-5l260-260q6-6 6-13t-6-13l-28-28q-5-5-12-5t-13 5l-220 219-219-219q-5-5-13-5t-13 5l-27 28q-6 6-6 13z m0 214q0 7 6 13l260 260q5 6 12 6t13-6l260-260q6-6 6-13t-6-13l-28-28q-5-5-12-5t-13 5l-220 220-219-220q-5-5-13-5t-13 5l-27 28q-6 6-6 13z" horiz-adv-x="642.9" />
<glyph glyph-name="angle-double-down" unicode="&#xe822;" d="m43 368q0 7 6 13l27 28q6 5 13 5t13-5l219-220 220 220q5 5 13 5t12-5l28-28q6-6 6-13t-6-13l-260-260q-5-6-13-6t-12 6l-260 260q-6 6-6 13z m0 214q0 7 6 13l27 28q6 5 13 5t13-5l219-220 220 220q5 5 13 5t12-5l28-28q6-6 6-13t-6-13l-260-260q-5-5-13-5t-12 5l-260 260q-6 6-6 13z" horiz-adv-x="642.9" />
<glyph glyph-name="font" unicode="&#xe823;" d="m0-79l1 44q13 4 31 7t32 6 28 8 25 17 17 28l132 344 156 404h72q4-8 6-12l114-268q19-44 60-144t63-153q9-19 33-81t40-94q11-25 19-31 11-9 49-17t47-11q4-22 4-32 0-2-1-7t0-8q-35 0-106 5t-107 4q-42 0-120-4t-99-4q0 24 2 43l73 16q1 0 7 1t9 2 8 3 9 4 6 4 5 6 1 8q0 9-17 54t-40 99-24 56l-251 1q-14-33-43-109t-28-91q0-12 8-21t24-14 27-7 32-5 23-2q1-11 1-32 0-5-2-16-32 0-97 6t-97 6q-5 0-15-3t-12-2q-45-8-105-8z m310 366q18 0 76-1t89-1q11 0 32 1-48 141-102 252z" horiz-adv-x="928.6" />
<glyph glyph-name="ellipsis" unicode="&#xe824;" d="m0 332v107q0 23 16 38t38 16h107q22 0 38-16t15-38v-107q0-22-15-38t-38-15h-107q-23 0-38 15t-16 38z m286 0v107q0 23 15 38t38 16h107q23 0 38-16t16-38v-107q0-22-16-38t-38-15h-107q-22 0-38 15t-15 38z m285 0v107q0 23 16 38t38 16h107q22 0 38-16t16-38v-107q0-22-16-38t-38-15h-107q-22 0-38 15t-16 38z" horiz-adv-x="785.7" />
<glyph glyph-name="ellipsis-vert" unicode="&#xe825;" d="m0 46v108q0 22 16 38t38 15h107q22 0 38-15t15-38v-108q0-22-15-37t-38-16h-107q-23 0-38 16t-16 37z m0 286v107q0 23 16 38t38 16h107q22 0 38-16t15-38v-107q0-22-15-38t-38-15h-107q-23 0-38 15t-16 38z m0 286v107q0 22 16 38t38 16h107q22 0 38-16t15-38v-107q0-22-15-38t-38-16h-107q-23 0-38 16t-16 38z" horiz-adv-x="214.3" />
<glyph glyph-name="bug" unicode="&#xe826;" d="m18 314q0 15 11 25t25 11h125v164l-97 97q-11 10-11 25t11 25 25 10 25-10l97-97h471l96 97q11 10 25 10t26-10 10-25-10-25l-97-97v-164h125q15 0 25-11t11-25-11-25-25-10h-125q0-96-37-162l116-117q10-11 10-25t-10-25q-10-11-25-11t-26 11l-110 110q-3-3-8-7t-24-16-36-21-46-16-54-7v500h-71v-500q-29 0-57 7t-49 19-36 22-25 18l-8 8-102-116q-11-12-27-12-13 0-24 9-11 10-11 25t8 26l113 127q-32 63-32 153h-125q-15 0-25 10t-11 25z m268 322q0 74 52 126t126 52 127-52 52-126h-357z" horiz-adv-x="928.6" />
<glyph glyph-name="filter" unicode="&#xe827;" d="m3 685q9 22 33 22h714q23 0 33-22 9-23-8-39l-275-275v-414q0-23-22-33-7-3-14-3-15 0-25 11l-143 143q-10 10-10 25v271l-275 275q-18 16-8 39z" horiz-adv-x="785.7" />
<glyph glyph-name="euro" unicode="&#xe828;" d="m0 280v63q0 7 5 12t13 6h37q-1 31 0 58h-37q-8 0-13 5t-5 13v64q0 7 5 13t13 5h55q37 117 135 188t224 72q57 0 108-13 6-2 11-9 4-6 2-13l-24-89q-2-7-8-11t-13-1l-2 1q-3 0-7 1l-10 2t-12 2-15 2-16 1-16 0q-71 0-126-35t-84-98h261q9 0 14-7 6-7 4-15l-13-63q-3-15-18-15h-273q-1-20 0-58h256q9 0 14-7 5-7 4-15l-14-63q-1-6-6-10t-11-4h-216q27-65 84-104t127-38q10 0 20 1t19 2 16 2 14 3 10 3l7 1 3 2q7 2 14-2 7-4 9-11l19-89q2-7-1-13t-10-8l-3 0q-2-1-6-2t-9-3-12-3-14-3-17-2-18-3-21-2-21 0q-131 0-228 73t-133 196h-53q-7 0-13 5t-5 13z" horiz-adv-x="571.4" />
<glyph glyph-name="pound" unicode="&#xe829;" d="m0 11v83q0 8 5 13t13 5h54v214h-53q-8 0-13 5t-5 13v73q0 8 5 13t13 5h53v124q0 96 69 158t175 62q104 0 187-70 5-5 6-12t-4-12l-57-71q-5-6-13-7-7-1-13 4-2 3-14 11t-39 18-51 10q-48 0-77-27t-29-68v-120h170q8 0 13-5t5-13v-73q0-7-5-13t-13-5h-170v-212h231v101q0 8 5 13t13 5h90q8 0 13-5t5-13v-204q0-8-5-13t-13-5h-533q-8 0-13 5t-5 13z" horiz-adv-x="571.4" />
<glyph glyph-name="dollar" unicode="&#xe82a;" d="m29 88l58 76q3 5 12 6 9 1 14-5l1-1q63-55 135-70 21-4 42-4 45 0 79 24t35 68q0 16-9 30t-18 23-33 21-37 18-45 18q-21 9-34 14t-34 15-35 17-32 20-29 24-25 27-20 32-11 37-5 44q0 77 55 135t142 75v100q0 7 5 13t13 5h75q8 0 13-5t5-13v-98q32-4 62-13t48-19 36-21 21-16 9-8q9-10 3-21l-46-81q-4-9-12-9-8-2-16 4-1 1-8 6t-21 15-33 18-42 15-47 6q-53 0-87-24t-33-62q0-14 4-27t17-23 22-18 31-18 34-15 39-15q30-11 45-18t43-19 42-24 34-28 30-35 18-43 7-52q0-86-56-147t-144-77v-97q0-8-5-13t-13-5h-75q-7 0-13 5t-5 13v97q-37 5-71 18t-57 25-41 26-26 21-10 10q-9 12-1 23z" horiz-adv-x="571.4" />
<glyph glyph-name="shield" unicode="&#xe82b;" d="m0 314v429q0 14 11 25t25 11h643q14 0 25-11t10-25v-429q0-48-18-95t-47-84-66-71-70-57-68-43-50-28-23-11q-7-4-15-4t-14 4q-9 4-24 11t-50 28-68 43-70 57-66 71-46 84-19 95z m357-277q67 35 119 76 131 103 131 201v357h-250v-634z" horiz-adv-x="714.3" />
<glyph glyph-name="android" unicode="&#xe82c;" d="m0 181v240q0 23 17 40t41 17q23 0 40-17t16-40v-240q0-24-16-41t-40-17-41 17-17 41z m135 306q0 66 35 121t96 85l-39 73q-4 8 2 11 8 4 12-3l40-74q53 24 112 24t112-24l40 74q4 7 11 3 7-3 3-11l-39-73q59-31 95-85t36-121h-516z m2-391v371h512v-371q0-26-18-44t-43-18h-42v-127q0-24-16-40t-41-17-41 17-17 40v127h-77v-127q0-24-16-40t-41-17q-24 0-40 17t-17 40l-1 127h-41q-26 0-43 18t-18 44z m117 506q0-9 6-15t15-7 15 7 7 15-7 16-15 6-15-6-6-16z m235 0q0-9 6-15t16-7 15 7 6 15-6 16-15 6-16-6-6-16z m182-421v240q0 24 17 40t40 17q24 0 41-17t17-40v-240q0-24-17-41t-41-17q-23 0-40 17t-17 41z" horiz-adv-x="785.7" />
<glyph glyph-name="apple" unicode="&#xe82d;" d="m0 347q0 127 63 208 63 81 159 81 40 0 98-17 58-17 77-17 25 0 80 19 57 19 97 19 66 0 119-36 29-20 58-56-45-37-64-66-36-52-36-115 0-70 38-125t88-70q-21-70-68-140-72-109-144-109-27 0-78 18-48 18-84 18-34 0-79-19-46-19-74-19-85 0-168 145-82 146-82 281z m381 277q2 83 44 143 41 60 139 83 1-2 2-6t1-6q0-3 0-6t1-6q0-34-17-75-16-42-52-77-30-31-60-41-20-6-58-9z" horiz-adv-x="785.7" />
<glyph glyph-name="twitter" unicode="&#xe82e;" d="m920 636q-36-54-94-98l0-24q0-130-60-250t-186-203-290-83q-160 0-290 84 14-2 46-2 132 0 234 80-62 2-110 38t-66 94q10-4 34-4 26 0 50 6-66 14-108 66t-42 120l0 2q36-20 84-24-84 58-84 158 0 48 26 94 154-188 390-196-6 18-6 42 0 78 55 133t135 55q82 0 136-58 60 12 120 44-20-66-82-104 56 8 108 30z" horiz-adv-x="920" />
<glyph glyph-name="cancel" unicode="&#xe82f;" d="m123 654l181-181 181 181 123-124-182-178 183-184-124-121-181 182-181-182-123 122 183 183-182 178z" horiz-adv-x="609" />
<glyph glyph-name="home-alt" unicode="&#xe830;" d="m888 336q16-16 11-27t-27-11l-84 0 0-310q0-14-1-21t-8-13-23-6l-204 0 0 310-204 0 0-310-194 0q-28 0-35 10t-7 30l0 310-84 0q-22 0-27 11t11 27l400 402q16 16 38 16t38-16z" horiz-adv-x="900" />
<glyph glyph-name="location" unicode="&#xe831;" d="m250 750q104 0 177-73t73-177q0-106-62-243t-126-223l-62-84q-10 12-27 35t-60 89-76 130-60 147-27 149q0 104 73 177t177 73z m0-388q56 0 96 40t40 96-40 95-96 39-95-39-39-95 39-96 95-40z" horiz-adv-x="500" />
<glyph glyph-name="map-1" unicode="&#xe832;" d="m984 600q16-10 16-30l0-584q0-20-16-30-8-6-16-6t-18 6l-216 136-216-136q-18-10-34 0l-218 136-216-136q-16-10-34 0-16 10-16 30l0 584q0 20 16 30l234 146q18 10 34 0l216-136 218 136q16 10 32 0z m-750-450l0 506-168-104 0-506z m234-104l0 506-168 104 0-506z m234 104l0 506-170-104 0-506z m232-104l0 506-168 104 0-506z" horiz-adv-x="1000" />
<glyph glyph-name="sort-numeric" unicode="&#xe833;" d="m157 89q-21 0-37 16t-15 37l0 332-29-15q-20-10-41-3t-29 27q-10 20-3 41t27 29l103 51q28 14 52-3t25-43l0-416q0-21-16-37t-37-16z m469 0l-260 0q-33 0-48 32t10 57l209 209q20 20 20 49 0 30-20 50t-49 20-50-20q-21-19-21-50 0-22-15-37t-36-15-37 15-16 37q0 72 52 123 50 50 123 50t123-50q51-51 51-123 0-72-51-123l-120-120 135 0q21 0 37-15t15-36-15-37-37-16z m414 293q55-51 55-124 0-70-50-119t-119-50-120 50-50 119q0 21 16 37t36 16 37-16 16-37q0-27 19-46t46-19 46 19 19 46-19 47-46 19q-21 0-37 15t-16 37 16 36 37 16q16 0 27 11t12 28-12 27-27 12q-25 0-35-22-10-18-31-25t-39 4-26 31 3 39q42 78 128 78 59 0 101-43t41-101q0-46-28-85z" horiz-adv-x="1095" />
<glyph glyph-name="archive-alt" unicode="&#xe834;" d="m840 600l0-50-696 0 0 50q0 22 13 35t25 15l608 0q6 0 14-1t22-14 14-35z m-148 150q6 0 14-1t22-14 14-35l-498 0q0 22 13 35t25 15l410 0z m248-200q34-32 38-46 6-18 0-54l-76-450q-4-22-20-35t-28-15l-710 0q-52 0-60 50-6 26-39 223t-39 227q-10 22-3 44t10 26 21 20l10 10 30 30 0-80 836 0 0 80z m-248-270l0 100-70 0 0-80-260 0 0 80-68 0 0-100q0-50 48-50l300 0q22 0 35 12t13 24z" horiz-adv-x="981" />
<glyph glyph-name="folder" unicode="&#xe835;" d="m954 500q32 0 40-12t6-36l-42-452q-2-24-12-37t-42-13l-806 0q-52 0-56 50l-42 452q-2 24 6 36t40 12l908 0z m-34 110l10-40-846 0 14 132q4 20 20 34t36 14l164 0q52 0 86-34l30-30q32-36 86-36l340 0q20 0 38-12t22-28z" horiz-adv-x="1001" />
<glyph glyph-name="menu" unicode="&#xe836;" d="m0 29v71q0 15 11 25t25 11h785q15 0 26-11t10-25v-71q0-15-10-26t-26-10h-785q-15 0-25 10t-11 26z m0 285v72q0 14 11 25t25 10h785q15 0 26-10t10-25v-72q0-14-10-25t-26-10h-785q-15 0-25 10t-11 25z m0 286v71q0 15 11 26t25 10h785q15 0 26-10t10-26v-71q0-15-10-25t-26-11h-785q-15 0-25 11t-11 25z" horiz-adv-x="857.1" />
<glyph glyph-name="language" unicode="&#xe837;" d="m988 306q30-82-10-176t-134-160q-10 0-12 2t-16 19-16 19q-2 6 2 10 86 60 117 152t-11 148q-16-38-39-76t-59-80-86-65-106-15q-52 6-84 41t-32 93q0 84 60 148 50 50 114 66l-2 100q-140-24-146-24-6-2-10 4 0 2-5 29t-5 31q-2 2 1 4t7 2l156 28q0 110-2 114 0 8 8 8 46 0 52 2 10 0 10-8l0-104q158 22 164 22 8 4 10-6 0-2 4-23t4-25q4-10-4-12l-176-30 0-102 12 0q86 0 148-36t86-100z m-370-160q28-6 62 6l-4 214q-34-12-60-40-44-44-44-108 0-66 46-72z m122 28q28 24 58 68t45 79 7 41q-36 18-96 18-2 0-6-1t-6-1z m-448 382q10-28 53-165t83-261 40-126q0-4-4-4l-86 0q-6 0-6 4l-50 166-176 0q-48-164-50-166 0-4-6-4l-86 0q-4 0-4 4 10 18 176 552 2 8 10 8l96 0q10 0 10-8z m-130-316l144 0-72 264z" horiz-adv-x="1001" />
<glyph glyph-name="flow-cascade" unicode="&#xe838;" d="m520 120q50 0 85-35t35-85-35-85-85-35q-80 0-110 74l-164 0q-88 0-131 54t-43 118l0 464q-72 34-72 110 0 50 35 85t85 35 85-35 35-85q0-76-72-110l0-114q0-78 78-78l164 0q30 72 110 72 50 0 85-35t35-85-35-85-85-35q-80 0-110 74l-164 0q-42 0-78 16l0-194q0-78 78-78l164 0q30 72 110 72z m0 300q-28 0-49-20t-21-50q0-28 21-48t49-20 49 20 21 48q0 30-21 50t-49 20z m-470 280q0-28 21-48t49-20 49 20 21 48q0 30-21 50t-49 20-49-20-21-50z m470-768q28 0 49 20t21 48q0 30-21 50t-49 20-49-20-21-50q0-28 21-48t49-20z" horiz-adv-x="640" />
<glyph glyph-name="flow-branch" unicode="&#xe839;" d="m640 650q0-80-74-110-6-58-28-101t-61-69-68-38-75-26q-42-14-63-22t-47-24-38-40-16-60q70-30 70-110 0-50-35-85t-85-35-85 35-35 85q0 78 72 112l0 378q-72 34-72 110 0 50 35 85t85 35 85-35 35-85q0-76-72-110l0-204q40 30 138 60 58 18 84 29t51 41 29 76q-70 32-70 108 0 50 35 85t85 35 85-35 35-85z m-588 0q0-28 20-48t48-20 49 20 21 48q0 30-21 50t-49 20-48-20-20-50z m68-668q28 0 49 20t21 48q0 30-21 50t-49 20-48-20-20-50q0-28 20-48t48-20z m400 600q28 0 49 20t21 48q0 30-21 50t-49 20-48-20-20-50q0-28 20-48t48-20z" horiz-adv-x="640" />
<glyph glyph-name="flow-tree" unicode="&#xe83a;" d="m868 112q72-34 72-112 0-50-35-85t-85-35-85 35-35 85q0 78 72 112l0 114q0 78-76 78l-100 0q-44 0-78 12l0-204q72-34 72-112 0-50-35-85t-85-35-85 35-35 85q0 78 72 112l0 204q-30-12-76-12l-100 0q-34 0-53-19t-22-33-3-26l0-114q72-34 72-112 0-50-35-85t-85-35-85 35-35 85q0 78 72 112l0 114q0 64 43 118t131 54l100 0q76 0 76 52l0 140q-72 34-72 110 0 50 35 85t85 35 85-35 35-85q0-76-72-110l0-140q0-52 78-52l100 0q86 0 129-54t43-118l0-114z m-678-112q0 30-21 50t-49 20-48-20-20-50q0-28 20-48t48-20 49 20 21 48z m212 700q0-28 20-48t48-20 49 20 21 48q0 30-21 50t-49 20-48-20-20-50z m138-700q0 30-21 50t-49 20-48-20-20-50q0-28 20-48t48-20 49 20 21 48z m280-68q28 0 49 20t21 48q0 30-21 50t-49 20-48-20-20-50q0-28 20-48t48-20z" horiz-adv-x="940" />
<glyph glyph-name="flow-line" unicode="&#xe83b;" d="m168 162q72-34 72-112 0-50-35-85t-85-35-85 35-35 85q0 78 72 112l0 378q-72 34-72 110 0 50 35 85t85 35 85-35 35-85q0-76-72-110l0-378z m-116 488q0-28 20-48t48-20 49 20 21 48q0 30-21 50t-49 20-48-20-20-50z m68-668q28 0 49 20t21 48q0 30-21 50t-49 20-48-20-20-50q0-28 20-48t48-20z" horiz-adv-x="240" />
<glyph glyph-name="flow-parallel" unicode="&#xe83c;" d="m240 650q0-76-72-110l0-378q72-34 72-112 0-50-35-85t-85-35-85 35-35 85q0 78 72 112l0 378q-72 34-72 110 0 50 35 85t85 35 85-35 35-85z m-50-600q0 30-21 50t-49 20-48-20-20-50q0-28 20-48t48-20 49 20 21 48z m-70 532q28 0 49 20t21 48q0 30-21 50t-49 20-48-20-20-50q0-28 20-48t48-20z m448-420q72-34 72-112 0-50-35-85t-85-35-85 35-35 85q0 78 72 112l0 378q-72 34-72 110 0 50 35 85t85 35 85-35 35-85q0-76-72-110l0-378z m-116 488q0-28 20-48t48-20 49 20 21 48q0 30-21 50t-49 20-48-20-20-50z m68-668q28 0 49 20t21 48q0 30-21 50t-49 20-48-20-20-50q0-28 20-48t48-20z" horiz-adv-x="640" />
<glyph glyph-name="rocket" unicode="&#xe83d;" d="m543 236q6-50 8-81t-8-59-13-40-35-32-45-26-70-31-85-37q-32-12-45 4t-3 44l40 110-130 132-106-40q-28-12-43 2t-3 46q12 30 31 79t27 65 22 45 25 36 29 20 41 13l52 0t71-6q10 14 29 39t77 85 118 104 145 75 165 19q8 0 14-6 4-4 6-14 10-82-18-168t-76-151-98-118-86-81z m50 296q22-22 54-22t54 22q22 24 22 56t-22 56q-22 22-54 22t-54-22q-22-24-22-56t22-56z" horiz-adv-x="860" />
<glyph glyph-name="ok" unicode="&#xe83e;" d="m875 588l-535-600-340 338 123 124 196-195 420 457z" horiz-adv-x="875" />
<glyph glyph-name="facebook" unicode="&#xe83f;" d="m500 644l-142 0q-14 0-25-15t-11-37l0-102 178 0 0-148-178 0 0-442-170 0 0 442-152 0 0 148 152 0 0 86q0 94 59 159t147 65l142 0 0-156z" horiz-adv-x="500" />
<glyph glyph-name="gplus" unicode="&#xe840;" d="m48 572q0 58 25 102t56 65 69 34 56 15 26 2l230 0 0-4q0-22-78-36-28 0-38-6 40-20 54-56t14-96q0-102-68-158-38-38-38-54 0-18 50-64 104-90 104-178 0-140-116-194-68-34-150-34l-4 0-4 2q-2-2-4-2-24 0-54 5t-75 21-74 57-29 103q0 60 32 101t83 57 88 22 71 6l2 0q-16 22-24 47t-8 39l2 14-14 0q-64 0-110 30-74 44-74 160z m370-452q-4 52-43 84t-103 32l-16 0q-64-2-114-46-46-42-42-94t53-80 119-24q68 4 109 40t37 88z m-60 500q-30 108-122 108-12 0-20-2-40-12-58-62-16-50-2-106 14-52 47-85t71-33q12 0 18 2 42 12 63 65t3 113z m388-174l150 0 0-94-150 0 0-150-94 0 0 150-150 0 0 94 150 0 0 150 94 0 0-150z" horiz-adv-x="896" />
<glyph glyph-name="smile" unicode="&#xe841;" d="m0 350q0 117 58 215t155 156 216 58 215-58 156-156 57-215-57-215-156-156-215-58-216 58-155 156-58 215z m71 0q0-73 29-139t76-113 114-77 139-28 138 28 114 77 76 113 29 139-29 139-76 114-114 76-138 28-139-28-114-76-76-114-29-139z m143 143q0 29 21 50t51 21 50-21 21-50-21-51-50-21-51 21-21 51z m10-243q-4 14 3 27t21 18q14 4 27-2t17-22q14-44 52-72t85-28 84 28 52 72q4 15 18 22t27 2 21-18 2-27q-21-67-77-109t-127-41-128 41-77 109z m276 243q0 29 21 50t50 21 51-21 21-50-21-51-51-21-50 21-21 51z" horiz-adv-x="857.1" />
<glyph glyph-name="download" unicode="&#xe842;" d="m968 198q18-10 27-32t3-40l-28-154q-4-20-22-33t-40-13l-816 0q-22 0-40 13t-22 33l-28 154q-10 48 32 72l158 108 98 0-170-130 178 0q8 0 12-8l40-110 300 0 40 110q8 8 12 8l178 0-170 130 98 0z m-208 322l-260-244-260 244 166 0 0 256 190 0 0-256 164 0z" horiz-adv-x="1000" />
<glyph glyph-name="upload" unicode="&#xe843;" d="m500 776l260-244-164 0 0-256-190 0 0 256-166 0z m468-578q18-10 27-32t3-40l-28-154q-4-20-22-33t-40-13l-816 0q-22 0-40 13t-22 33l-28 154q-10 48 32 72l158 108 98 0-170-130 178 0q8 0 12-8l40-110 300 0 40 110q8 8 12 8l178 0-170 130 98 0z" horiz-adv-x="1000" />
<glyph glyph-name="th-large" unicode="&#xe844;" d="m1000 850v-440h-440v440h440z m-320-320h200v200h-200v-200z m-240 320v-440h-440v440h440z m-320-320h200v200h-200v-200z m880-240v-440h-440v440h440z m-320-320h200v200h-200v-200z m-240 320v-440h-440v440h440z m-320-320h200v200h-200v-200z" horiz-adv-x="1000" />
<glyph glyph-name="th" unicode="&#xe845;" d="m1000 850v-160h-440v160h440z m0-280v-160h-440v160h440z m0-280v-160h-440v160h440z m-560 560v-440h-440v440h440z m-320-320h200v200h-200v-200z m880-520v-160h-440v160h440z m-560 280v-440h-440v440h440z m-320-320h200v200h-200v-200z" horiz-adv-x="1000" />
<glyph glyph-name="th-list" unicode="&#xe846;" d="m1000 850v-160h-1000v160h1000z m0-280v-160h-1000v160h1000z m0-280v-160h-1000v160h1000z m0-280v-160h-1000v160h1000z" horiz-adv-x="1000" />
<glyph glyph-name="flag" unicode="&#xe847;" d="m36 707q0 30 21 51t50 21 51-21 21-51q0-40-36-61v-707q0-7-5-12t-13-6h-36q-7 0-12 6t-6 12v707q-35 21-35 61z m143-536v414q0 18 17 31 12 8 44 24 132 67 235 67 60 0 112-16t122-49q21-11 49-11 30 0 65 12t62 26 49 26 30 12q15 0 25-10t11-26v-425q0-14-7-22t-22-15q-120-65-206-65-34 0-69 12t-60 27-65 27-79 12q-107 0-259-81-10-5-19-5-14 0-25 10t-10 25z" horiz-adv-x="1000" />
<glyph glyph-name="flag-empty" unicode="&#xe848;" d="m36 707q0 30 21 51t50 21 51-21 21-51q0-19-10-36t-26-25v-707q0-8-5-13t-13-5h-36q-7 0-13 5t-5 13v707q-16 9-25 25t-10 36z m143-536v414q0 20 17 31 19 12 44 24t63 29 85 28 87 10q62 0 117-17t116-48q21-11 50-11 68 0 173 63 12 6 17 9 17 9 35-1 17-11 17-31v-425q0-22-20-32-5-3-9-5-122-65-206-65-49 0-88 20l-16 7q-35 19-55 27t-51 16-63 8q-57 0-132-24t-127-57q-9-5-19-5-9 0-18 4-17 11-17 31z m71 60q137 63 242 63 30 0 57-5t55-14 43-17 46-22l16-8q24-12 56-12 67 0 164 51v344q-95-51-171-51-46 0-81 18-56 27-103 42t-99 16q-97 0-225-71v-334z" horiz-adv-x="1000" />
<glyph glyph-name="direction" unicode="&#xe849;" d="m1 306q-3 12 2 23t17 17l714 357q7 4 16 4 15 0 25-10 8-8 10-20t-3-22l-357-714q-10-20-32-20-3 0-8 1-13 3-20 13t-8 22v322h-321q-13 0-22 7t-13 20z" horiz-adv-x="785.7" />
<glyph glyph-name="docs" unicode="&#xe84a;" d="m0 118v375q0 22 11 49t27 42l228 228q15 16 42 27t49 11h232q23 0 38-16t16-38v-183q38 23 71 23h232q23 0 38-16t16-38v-678q0-23-16-38t-38-16h-535q-23 0-38 16t-16 38v160h-303q-23 0-38 16t-16 38z m71 18h286v143q0 22 11 49t27 42l176 176v233h-214v-233q0-22-15-38t-38-15h-233v-357z m48 428h167v167z m310-643h500v643h-215v-232q0-22-15-38t-38-15h-232v-358z m47 429h167v167z" horiz-adv-x="1000" />
<glyph glyph-name="folder-empty" unicode="&#xe84b;" d="m0 118v536q0 51 37 88t88 37h179q51 0 88-37t37-88v-18h375q51 0 88-37t37-88v-393q0-51-37-88t-88-37h-679q-51 0-88 37t-37 88z m71 0q0-22 16-38t38-16h679q22 0 38 16t15 38v393q0 22-15 38t-38 15h-393q-23 0-38 16t-16 38v36q0 22-15 38t-38 15h-179q-22 0-38-15t-16-38v-536z" horiz-adv-x="928.6" />
<glyph glyph-name="folder-open-empty" unicode="&#xe84c;" d="m0 118v536q0 51 37 88t88 37h179q51 0 88-37t37-88v-18h303q51 0 88-37t37-88v-90h107q30 0 56-13t37-40q8-17 8-38 0-34-25-66l-165-203q-24-30-65-49t-78-19h-607q-51 0-88 37t-37 88z m71 60l143 175q25 30 65 49t78 19h429v90q0 22-16 38t-38 15h-321q-23 0-38 16t-16 38v36q0 22-15 38t-38 15h-179q-22 0-38-15t-16-38v-476z m24-94q0-20 30-20h607q22 0 48 13t40 29l164 203q10 12 10 21 0 20-30 20h-607q-22 0-48-12t-39-29l-164-203q-11-13-11-22z" horiz-adv-x="1071.4" />
<glyph glyph-name="calendar" unicode="&#xe84d;" d="m0-79v715q0 29 21 50t50 21h72v54q0 36 26 63t63 26h36q37 0 63-26t26-63v-54h214v54q0 36 27 63t63 26h35q37 0 63-26t27-63v-54h71q29 0 50-21t22-50v-715q0-29-22-50t-50-21h-786q-29 0-50 21t-21 50z m71 0h161v161h-161v-161z m0 197h161v178h-161v-178z m0 214h161v161h-161v-161z m143 268q0-7 6-13t12-5h36q7 0 12 5t6 13v161q0 7-6 12t-12 6h-36q-7 0-12-6t-6-12v-161z m54-679h178v161h-178v-161z m0 197h178v178h-178v-178z m0 214h178v161h-178v-161z m214-411h179v161h-179v-161z m0 197h179v178h-179v-178z m0 214h179v161h-179v-161z m161 268q0-7 5-13t13-5h35q8 0 13 5t5 13v161q0 7-5 12t-13 6h-35q-8 0-13-6t-5-12v-161z m53-679h161v161h-161v-161z m0 197h161v178h-161v-178z m0 214h161v161h-161v-161z" horiz-adv-x="928.6" />
<glyph glyph-name="calendar-empty" unicode="&#xe84e;" d="m0-79v715q0 29 21 50t50 21h72v54q0 36 26 63t63 26h36q37 0 63-26t26-63v-54h214v54q0 36 27 63t63 26h35q37 0 63-26t27-63v-54h71q29 0 50-21t22-50v-715q0-29-22-50t-50-21h-786q-29 0-50 21t-21 50z m71 0h786v572h-786v-572z m143 679q0-8 5-13t13-5h36q8 0 13 5t5 13v161q0 8-5 13t-13 5h-36q-8 0-13-5t-5-13v-161z m429 0q0-8 5-13t13-5h35q8 0 13 5t5 13v161q0 8-5 13t-13 5h-35q-8 0-13-5t-5-13v-161z" horiz-adv-x="928.6" />
<glyph glyph-name="arrows-cw" unicode="&#xe84f;" d="m0-7v250q0 14 11 25t25 11h250q14 0 25-11t10-25-10-25l-77-77q40-37 90-57t105-20q74 0 139 37t104 99q6 10 29 66 5 13 17 13h107q8 0 13-6t5-12q0-3 0-4-36-150-150-243t-267-93q-81 0-157 31t-136 88l-72-72q-11-11-25-11t-25 11-11 25z m10 446v4q36 150 151 243t268 93q81 0 158-31t137-88l72 72q11 11 25 11t26-11 10-25v-250q0-14-10-25t-26-11h-250q-14 0-25 11t-10 25 10 25l77 77q-82 77-194 77-75 0-140-37t-104-99q-6-10-29-66-5-13-17-13h-111q-7 0-13 6t-5 12z" horiz-adv-x="857.1" />
<glyph glyph-name="list-bullet" unicode="&#xe850;" d="m0 64q0 45 31 76t76 31 76-31 31-76-31-76-76-31-76 31-31 76z m0 286q0 45 31 76t76 31 76-31 31-76-31-76-76-31-76 31-31 76z m0 286q0 44 31 76t76 31 76-31 31-76-31-76-76-31-76 31-31 76z m286-625v107q0 7 5 12t13 6h678q7 0 13-6t5-12v-107q0-7-5-13t-13-5h-678q-8 0-13 5t-5 13z m0 285v108q0 7 5 12t13 5h678q7 0 13-5t5-12v-108q0-7-5-12t-13-5h-678q-8 0-13 5t-5 12z m0 286v107q0 8 5 13t13 5h678q7 0 13-5t5-13v-107q0-7-5-12t-13-6h-678q-8 0-13 6t-5 12z" horiz-adv-x="1000" />
<glyph glyph-name="paste" unicode="&#xe851;" d="m0 46v750q0 23 16 38t38 16h607q22 0 38-16t15-38v-183q12-7 20-15l228-228q16-16 27-42t11-50v-374q0-23-16-38t-38-16h-535q-23 0-38 16t-16 38v89h-303q-23 0-38 15t-16 38z m143 679q0-7 5-13t13-5h393q7 0 12 5t5 13v36q0 7-5 12t-12 5h-393q-7 0-13-5t-5-12v-36z m286-804h500v358h-233q-22 0-38 15t-15 38v232h-214v-643z m285 429h167l-167 167v-167z" horiz-adv-x="1000" />
<glyph glyph-name="dot-circled" unicode="&#xe852;" d="m0 350q0 117 58 215t155 156 216 58 215-58 156-156 57-215-57-215-156-156-215-58-216 58-155 156-58 215z m125 0q0-83 41-152t110-111 153-41 152 41 110 111 41 152-41 152-110 111-152 41-153-41-110-111-41-152z m161 0q0 59 42 101t101 42 101-42 41-101-41-101-101-42-101 42-42 101z" horiz-adv-x="857.1" />
<glyph glyph-name="circle-empty" unicode="&#xe853;" d="m0 350q0 117 58 215t155 156 216 58 215-58 156-156 57-215-57-215-156-156-215-58-216 58-155 156-58 215z m125 0q0-83 41-152t110-111 153-41 152 41 110 111 41 152-41 152-110 111-152 41-153-41-110-111-41-152z" horiz-adv-x="857.1" />
<glyph glyph-name="check-empty" unicode="&#xe854;" d="m0 154v464q0 66 47 113t114 48h464q66 0 114-48t47-113v-464q0-67-47-114t-114-47h-464q-67 0-114 47t-47 114z m71 0q0-37 27-63t63-27h464q37 0 63 27t26 63v464q0 37-26 63t-63 26h-464q-37 0-63-26t-27-63v-464z" horiz-adv-x="785.7" />
<glyph glyph-name="check" unicode="&#xe855;" d="m0 154v464q0 66 47 113t114 48h464q35 0 65-14 9-4 10-13 2-10-5-16l-27-28q-6-5-13-5-2 0-5 1-13 3-25 3h-464q-37 0-63-26t-27-63v-464q0-37 27-63t63-27h464q37 0 63 27t26 63v141q0 8 5 13l36 35q6 6 13 6 3 0 7-2 11-4 11-16v-177q0-67-47-114t-114-47h-464q-67 0-114 47t-47 114z m143 267q0 19 14 32l61 62q14 13 32 13t32-13l147-147 361 361q13 13 31 13t32-13l62-61q13-14 13-32t-13-32l-455-454q-13-14-31-14t-32 14l-240 240q-14 13-14 31z" horiz-adv-x="928.6" />
<glyph glyph-name="asterisk" unicode="&#xe856;" d="m68 221q8 29 34 43l148 86-148 86q-26 14-34 43t7 55l36 61q15 26 43 33t55-7l148-85v171q0 29 21 50t51 22h71q29 0 50-22t21-50v-171l149 85q26 15 54 7t44-33l35-61q15-26 7-55t-33-43l-148-86 148-86q26-15 33-43t-7-55l-35-61q-15-26-44-33t-54 7l-149 85v-171q0-29-21-50t-50-22h-71q-29 0-51 22t-21 50v171l-148-85q-26-15-55-7t-43 33l-36 61q-14 26-7 55z" horiz-adv-x="928.6" />
<glyph glyph-name="user-add" unicode="&#xe857;" d="m620 128q180-64 180-122l0-106-800 0 0 202q36 14 82 26 94 34 129 69t35 95q0 22-23 48t-31 74q-2 12-23 25t-25 61q0 16 5 26t9 12l4 4q-8 50-12 88-6 54 40 112t160 58 160-58 42-112l-14-88q18-8 18-42-2-28-9-43t-14-17-14-8-9-18q-10-46-33-73t-23-49q0-60 36-95t130-69z m230 272l150 0 0-100-150 0 0-150-100 0 0 150-150 0 0 100 150 0 0 150 100 0 0-150z" horiz-adv-x="1000" />
<glyph glyph-name="eye" unicode="&#xe858;" d="m0 314q0 19 11 39 78 128 210 205t279 78 279-78 210-205q11-20 11-39t-11-38q-78-129-210-206t-279-77-279 77-210 206q-11 19-11 38z m71 0q75-114 187-182t242-68 242 68 187 182q-85 132-213 197 34-58 34-125 0-104-73-177t-177-73-177 73-73 177q0 67 34 125-128-65-213-197z m259 72q0-11 8-19t19-8 19 8 8 19q0 48 34 82t82 34q11 0 19 8t8 19-8 19-19 7q-70 0-120-50t-50-119z" horiz-adv-x="1000" />
<glyph glyph-name="users" unicode="&#xe859;" d="m1000-90l-224 0 0 150q0 54-30 81t-154 89q40 30 40 84 0 16-13 33t-19 51q-2 8-14 16t-14 42q0 24 12 30-6 34-8 60-4 38 23 78t95 40 96-40 24-78l-8-60q12-6 12-30-2-34-14-42t-14-16q-6-34-19-51t-13-33q0-42 21-66t77-48q112-46 130-80 6-8 9-61t5-101l0-48z m-488 262q182-78 182-124l0-138-694 0 0 184q0 44 84 78 76 32 104 64t28 88q0 20-19 44t-25 68q-2 10-18 22t-20 56q0 14 3 23t7 13l4 2q-6 46-10 82-4 50 33 103t127 53 127-53 33-103l-10-82q14-8 14-38-4-44-20-56t-18-22q-6-44-25-68t-19-44q0-56 28-88t104-64z" horiz-adv-x="1000" />
<glyph glyph-name="sort-alphabet" unicode="&#xe85a;" d="m516 165q12-25-2-50t-44-25q-33 0-47 29l-37 75-249 0-37-75q-9-20-30-27t-40 3q-20 9-27 29t3 41l209 417q13 27 47 27t46-27z m-326 134l143 0-72 143z m905-209l-313 0q-30 0-45 27t4 57l250 332-209 0q-21 0-37 16t-15 37 15 36 37 16l313 0q30 0 45-28t-4-56l-250-333 209 0q21 0 37-15t15-37-15-37-37-15z m-417 209l-105 0q-21 0-36 15t-15 36 15 37 36 15l105 0q22 0 37-15t15-37-15-36-37-15z" horiz-adv-x="1147" />
<glyph glyph-name="chart-pie" unicode="&#xe85b;" d="m368 770l0-368-368 0q18 146 121 249t247 119z m106 0q156-20 261-139t105-279q0-174-123-298t-299-124q-160 0-278 105t-140 263l424 0q20 0 35 14t15 36l0 422z" horiz-adv-x="840" />
<glyph glyph-name="chart-line" unicode="&#xe85c;" d="m34 284q-42 10-32 56 10 42 54 32l98-24-52-80z m890-12q14 12 33 11t31-15q32-32-2-64l-252-226q-12-12-30-12-14 0-28 10l-286 220-54 14 50 80 36-8q12-4 16-8l264-204z m-490 220l-350-550q-12-22-38-22-12 0-24 8-16 10-20 29t6 33l374 588q8 16 28 20 18 6 36-6l246-156 226 326q10 16 28 19t34-9q38-24 12-62l-252-362q-24-36-62-12z" horiz-adv-x="1003" />
<glyph glyph-name="chart-bar" unicode="&#xe85d;" d="m750 800q22 0 36-15t14-35l0-850-200 0 0 850q0 50 40 50l110 0z m-300-300q22 0 36-15t14-35l0-550-200 0 0 550q0 50 40 50l110 0z m-300-300q22 0 36-15t14-35l0-250-200 0 0 250q0 50 40 50l110 0z" horiz-adv-x="800" />
<glyph glyph-name="chart-area" unicode="&#xe85e;" d="m964 732q16 22 16-4l0-768-964 0q-12 0-15 7t5 17l230 288q20 22 40 2l74-66q10-8 21-7t17 11l158 238q16 26 38 4l112-104q20-20 38 4z" horiz-adv-x="980" />
<glyph glyph-name="database" unicode="&#xe85f;" d="m686 208q14 20 14-2l0-100q0-74-104-135t-246-61q-140 0-245 61t-105 135l0 100q0 8 4 10t10-8q32-52 125-86t211-34 211 34 125 86z m2 254q8 16 12 0l0-116q0-68-102-114t-248-46q-144 0-247 46t-103 114l0 116q0 20 14 0 30-46 124-75t212-29 212 29 126 75z m-338 328q144 0 247-39t103-93l0-64q0-58-103-99t-247-41-247 41-103 99l0 64q0 54 103 93t247 39z" horiz-adv-x="700" />
<glyph glyph-name="gauge" unicode="&#xe860;" d="m406 178q34 56 214 284t194 220q12-6-96-278t-138-326q-50-86-136-36t-38 136z m94 380q-168 0-284-127t-116-311q0-30 2-46 2-22-12-37t-34-17-36 12-18 34q0 8-1 26t-1 28q0 226 145 382t355 156q72 0 134-18l-70-86q-40 4-64 4z m362-62q138-154 138-376 0-38-2-56-2-20-16-33t-34-13l-4 0q-22 4-35 20t-11 36q2 14 2 46 0 150-80 268 6 14 20 51t22 57z" horiz-adv-x="1000" />
<glyph glyph-name="user" unicode="&#xe861;" d="m736 128q204-72 204-122l0-106-940 0 0 106q0 50 204 122 94 34 128 69t34 95q0 22-22 49t-32 73q-2 12-9 18t-14 8-14 17-9 43q0 16 5 26t9 12l4 4q-8 50-12 88-4 54 41 112t157 58 158-58 40-112l-12-88q18-8 18-42-2-28-9-43t-14-17-14-8-9-18q-8-48-31-74t-23-48q0-60 35-95t127-69z" horiz-adv-x="940" />
<glyph glyph-name="article-misc" unicode="&#xe862;" d="m911 685l-893 0 0 112 893 0 0-112z m-335-223l-558 0 0 112 558 0 0-112z m335-225l-893 0 0 111 893 0 0-111z m-893-277q0 56 56 56t56-56q0-57-56-57t-56 57z m280 56q22 0 39-17t16-39-16-40-39-17q-24 0-40 17t-17 40 17 39 40 17z m166-56q0 56 57 56 55 0 55-56 0-57-55-57-57 0-57 57z" horiz-adv-x="928" />
<glyph glyph-name="error" unicode="&#xe863;" d="m0 350q0 207 147 354t353 146 354-146 146-354-146-354-354-146-353 146-147 354z m164-133l672 0 0 266-672 0 0-266z" horiz-adv-x="1000" />
<glyph glyph-name="link-alt" unicode="&#xe864;" d="m1000 583q0-112-78-188l-175-176q-78-78-189-78-97 0-171 63l115 115q26-17 56-17 44 0 75 31l175 176q31 29 31 74 0 44-30 75t-75 30q-25 0-49-12t-33-34h-238l132 129q80 78 188 78 110 0 188-78t78-188z m-387-89l-115-115q-26 17-56 17-44 0-75-31l-175-176q-31-29-31-74 0-44 31-74t74-31q25 0 50 12t32 34h238l-132-129q-80-78-188-78-110 0-188 78t-78 188q0 112 78 188l175 176q78 78 189 78 97 0 171-63z" horiz-adv-x="1000" />
<glyph glyph-name="list" unicode="&#xe865;" d="m18 684q0 57 56 57t56-57q0-55-56-55t-56 55z m0-223q0 57 56 57t56-57q0-55-56-55t-56 55z m0-223q0 56 56 56t56-56q0-55-56-55t-56 55z m0-223q0 56 56 56t56-56q0-56-56-56t-56 56z m223 614l0 112 670 0 0-112-670 0z m0-223l0 112 670 0 0-112-670 0z m0-223l0 111 670 0 0-111-670 0z m0-224l0 112 670 0 0-112-670 0z" horiz-adv-x="928" />
<glyph glyph-name="chart-pie-alt" unicode="&#xe866;" d="m424 256l-296-296q-110 129-110 296t110 295z m44 39l-362 360q157 130 362 142l0-502z m55 390q143-21 238-130t95-256q0-164-115-280t-278-116q-127 0-233 78l293 290 0 414z" horiz-adv-x="873" />
<glyph glyph-name="chart-pie-alt-explode" unicode="&#xe867;" d="m402 256l-280-280q-104 123-104 281t104 278z m172 426q144-21 241-130t96-255q0-164-115-279t-280-115q-122 0-229 79l287 291 0 409z m-110-331l-320 320q143 115 320 126l0-446z" horiz-adv-x="928" />
<glyph glyph-name="na" unicode="&#xe868;" d="m102 180v343h62l80-117 64-101h2v218h69v-343h-63l-86 129-58 88h-2v-217h-68z m300-22l127 383h51l-127-383h-51z m186 22l121 343h70l119-343h-74l-22 70h-119l-23-70h-72z m113 127h84l-14 45-27 90h-2l-28-88z" horiz-adv-x="1000" />
<glyph glyph-name="hash" unicode="&#xe869;" d="m799 462l-153 0-28-223 181 0 0-112-195 0-28-224-112 0 28 224-223 0-28-224-111 0 27 224-139 0 0 112 154 0 27 223-181 0 0 112 196 0 27 223 112 0-28-223 223 0 28 223 112 0-28-223 139 0 0-112z m-293-223l28 223-223 0-28-223 223 0z" horiz-adv-x="817" />
<glyph glyph-name="clock-1" unicode="&#xe86a;" d="m0 350q0 95 37 182t100 149 150 100 182 37 182-37 149-100 100-149 37-182-37-182-100-150-149-100-182-37-182 37-150 100-100 150-37 182z m117 0q0-96 47-177t128-128 177-47q95 0 176 47t128 128 47 177q0 95-47 176t-128 128-176 47q-72 0-137-28t-112-75-75-112-28-136z m293 0v224q0 24 17 41t42 18 41-18 17-41v-200l142-141q17-17 17-42t-17-41-41-17q-25 0-42 17l-159 158q-1 2-4 5t-3 4q-1 2-2 4l-2 3t-1 4q-1 0-2 5-2 5-2 5-1 6-1 12z" horiz-adv-x="937.5" />
<glyph glyph-name="graph" unicode="&#xe86b;" d="m799 127q46 0 79-33t33-79-33-79-78-33-79 33-33 80q0 18 8 39l-169 122q-49-50-118-50t-118 49-50 119q0 9 3 26l-134 44q-16-14-36-14-24 0-40 16t-16 40 16 39 40 16q20 0 34-13t19-31l135-45q21 41 61 65t86 24q52 0 96-31l199 199q-16 30-16 55 0 46 33 79t79 33 78-33 33-79-33-78-79-33q-26 0-55 17l-199-200q31-44 31-96 0-37-17-73l169-121q33 26 71 26z" horiz-adv-x="928" />
<glyph glyph-name="stopwatch" unicode="&#xe86c;" d="m0 617l246 246 81-82-40-41 42-43q58 34 124 52v101h231v-101q99-26 178-90t124-158 45-200q0-94-36-180t-99-148-148-99-179-37-181 37-147 99-99 148-37 180q0 123 62 231l-44 44-41-41z m222-316q0-94 46-174t127-127 174-47 174 47 126 127 47 174-47 174-126 126-174 47-174-47-127-126-46-174z m118 130q0 24 16 41 17 17 41 17t41-17l140-140h198q24 0 41-17t16-41q0-25-17-40-17-18-40-18h-222q-3 0-11 1l-5 2q-1 0-3 1t-3 0q-1 1-3 2t-2 1l-5 3q-3 2-9 8l-157 156q-16 17-16 41z" horiz-adv-x="1031.7" />
<glyph glyph-name="article-alt" unicode="&#xe86d;" d="m133 722l826 0 0-632c0-58-51-111-105-111l-718 0c-88 0-136 46-136 159l0 461 133 0 0 123z m0-584l0 394-65 0 0-394c0-58 13-85 31-85 21 0 34 27 34 85z m758-48l0 564-691 0 0-516c0-40-7-69-19-91l673 0c22 0 37 26 37 43z m-425 135l0-22-158 0 0 22 158 0z m0-71l0-22-158 0 0 22 158 0z m63 31l0 254 266 0 0-254-266 0z m-63 180l0-22-158 0 0 22 158 0z m0-71l0-22-158 0 0 22 158 0z m0 145l0-22-158 0 0 22 158 0z m-135 73l0 43 417 0 0-43-417 0z" horiz-adv-x="959" />
<glyph glyph-name="group" unicode="&#xe86e;" d="m0 106l0 134q0 26 18 32l171 80q-66 39-68 131 0 56 35 103 37 41 90 43 31 0 63-19-49-125 23-237-12-11-25-19l-114-55q-48-23-52-84l0-143-114 0q-25 0-27 34z m193-59l0 168q0 27 22 37l152 70 57 28q-37 23-60 66t-22 94q0 76 46 130t110 54 109-54 45-130q0-106-78-158l61-30 146-70q24-10 24-37l0-168q-2-37-37-41l-541 0q-14 2-24 14t-10 27z m473 330q68 106 22 231 31 19 66 21 49 0 90-43 35-41 35-103 0-82-65-131l168-80q18-10 18-32l0-134q0-32-27-34l-118 0 0 143q0 57-50 84l-110 53q-15 8-29 25z" horiz-adv-x="1000" />
<glyph glyph-name="eye-off" unicode="&#xe86f;" d="m0 314q0 22 11 39 86 131 212 207t277 76q50 0 100-10l31 54q5 9 15 9 3 0 10-3t18-9 18-10 18-10 10-7q9-5 9-15 0-4 0-5-59-105-176-316t-176-316l-28-50q-5-9-15-9-7 0-75 39-9 6-9 16 0 7 25 48-80 37-147 97t-117 137q-11 17-11 38z m71 0q94-144 239-209l43 79q-48 35-76 88t-27 114q0 67 34 125-128-65-213-197z m259 72q0-11 8-19t19-8 19 8 8 19q0 48 34 82t82 34q11 0 19 8t8 19-8 19-19 7q-70 0-120-50t-50-119z m170-393l41 74q119 10 219 76t169 171q-65 100-158 164l35 63q53-36 102-86t81-102q11-19 11-39t-11-38q-22-36-61-81-84-96-194-149t-234-53z m89 159l157 281q4-26 4-47 0-78-44-142t-117-92z" horiz-adv-x="1000" />
<glyph glyph-name="hourglass" unicode="&#xe870;" d="m0-37v70q0 22 12 49t24 46 38 55l24 33t26 36 22 33 18 35 5 30-5 30-18 35-22 33-26 36l-24 32q-26 37-38 55t-24 46-12 49v70q0 34 24 58t59 24h419q35 0 59-24t25-58v-70q0-22-12-49t-24-46-38-55l-24-32t-27-36-22-33-17-36-6-29 6-30 17-35 22-33 27-37l24-32q25-36 38-55t24-46 12-49v-70q0-34-25-58t-59-24h-419q-34 0-59 24t-24 58z m100 35h40q0 9 2 17t9 18 12 16 17 18 19 16 22 17 23 16 25 18 24 17q8-6 26-19t28-19 25-19 25-19 19-19 16-19 10-19 4-20h40v35q0 7-14 31-8 14-42 63-53 75-71 108-34 64-34 115 0 26 7 54t25 57 30 50 36 51l7 10q33 47 42 64 6 9 9 17t4 11l1 2v35h-386v-35q1-8 13-30 10-17 43-64 53-75 71-108 34-63 34-114 0-27-8-54t-25-58-29-49-36-52q-1-1-2-2t-2-2-2-3-1-3q-34-49-43-63-13-24-13-31v-35z" horiz-adv-x="585.9" />
<glyph glyph-name="braille" unicode="&#xe871;" d="m0-26q0 52 36 88t87 36 88-36 37-88-37-88-88-36-87 36-36 88z m0 376q0 51 36 88t87 37 88-37 37-88-37-88-88-37-87 37-36 88z m0 376q0 52 36 88t87 36 88-36 37-88-37-88-88-36-87 36-36 88z m397-752q0 52 37 88t88 36 86-36 37-88-37-88-86-36-88 36-37 88z m0 376q0 51 37 88t88 37 86-37 37-88-37-88-86-37-88 37-37 88z m0 376q0 52 37 88t88 36 86-36 37-88-37-88-86-36-88 36-37 88z" horiz-adv-x="644" />
<glyph glyph-name="map" unicode="&#xe872;" d="m0 663l313 125v-750l-313-126z m688 0v-751l-313 105v750z m312 125v-750l-250-101v751z" horiz-adv-x="1000" />
<glyph glyph-name="attach" unicode="&#xe873;" d="m2 564q0 88 62 150t150 62q88 0 152-63l338-338q5-5 5-12 0-9-17-26t-26-17q-7 0-13 5l-338 339q-44 43-101 43-59 0-100-42t-40-101q0-58 42-101l433-433q35-35 81-35 36 0 59 23t24 59q0 46-36 81l-324 324q-14 14-33 14-16 0-27-11t-11-27q0-18 14-33l229-228q6-6 6-13 0-9-18-26t-26-17q-7 0-12 5l-229 229q-35 34-35 83 0 46 32 78t77 32q49 0 83-36l325-324q55-54 55-131 0-65-44-109t-109-44q-75 0-131 56l-434 433q-63 64-63 151z" horiz-adv-x="785.7" />
<glyph glyph-name="male" unicode="&#xe875;" d="m0 209q0 149 105 254t254 106q106 0 196-57l199 199-152 0 0 139 390 0 0-391-140 0 0 151-196-198q63-91 63-203 0-148-106-254t-255-105-253 105-105 254z m145 1q0-88 62-152t151-63 153 63 63 152-63 152-153 62-151-62-62-152z" horiz-adv-x="992" />
<glyph glyph-name="female" unicode="&#xe876;" d="m0 528q0 133 94 227t226 95 228-95 95-227q0-116-75-204t-185-111l0-103 137 0 0-123-137 0 0-137-123 0 0 137-139 0 0 123 139 0 0 103q-112 22-186 111t-74 204z m127 0q0-80 57-137t136-57 137 57 57 137-57 137-137 56-136-56-57-137z" horiz-adv-x="643" />
<glyph glyph-name="calendar-number" unicode="&#xe877;" d="m0-150l0 649 893 0 0-649-893 0z m0 705l0 221 109 0 0-141 200 0 0 141 275 0 0-141 199 0 0 141 110 0 0-221-893 0z m168 139l0 156 82 0 0-156-82 0z m59-619q0-112 123-112 47 0 84 32 39 31 39 80 0 68-78 90 48 15 64 48 12 28-2 73-27 62-107 62-51 0-86-26t-37-77l72 0q0 45 49 46 43 0 45-52 0-49-84-47l0-57q48 0 68-8 23-11 23-46 0-57-54-61-43 0-47 55l-72 0z m281 146q49 14 88 47l0-297 70 0 0 371-64 0q-38-37-94-58l0-63z m135 473l0 156 82 0 0-156-82 0z" horiz-adv-x="893" />
<glyph glyph-name="cog" unicode="&#xe878;" d="m0 272l0 156 150 16q14 45 38 88l-96 117 109 109 117-95q41 23 88 37l16 150 156 0 16-150q45-14 88-37l117 95 109-109-96-117q24-43 38-88l150-16 0-156-150-16q-14-47-38-88l96-117-109-109-117 96q-43-24-88-38l-16-150-156 0-16 150q-47 14-88 38l-117-96-109 109 96 117q-24 41-38 88z m355 78q0-60 42-102t103-42 103 42 42 102-42 103-103 42-103-42-42-103z" horiz-adv-x="1000" />
<glyph glyph-name="download-cloud" unicode="&#xe879;" d="m0 243q0 72 39 134t105 92q-1 17-1 24 0 118 84 202t202 84q87 0 159-49t105-129q40 35 93 35 59 0 101-42t42-101q0-43-23-77 72-17 119-76t46-133q0-89-62-151t-152-63h-607q-103 0-177 73t-73 177z m286 89q0-8 5-13l196-196q5-5 13-5t13 5l196 196q5 6 5 13 0 8-5 13t-13 5h-125v196q0 8-5 13t-12 5h-108q-7 0-12-5t-5-13v-196h-125q-8 0-13-5t-5-13z" horiz-adv-x="1071.4" />
<glyph glyph-name="upload-cloud" unicode="&#xe87a;" d="m0 243q0 72 39 134t105 92q-1 17-1 24 0 118 84 202t202 84q87 0 159-49t105-129q40 35 93 35 59 0 101-42t42-101q0-43-23-77 72-17 119-76t46-133q0-89-62-151t-152-63h-607q-103 0-177 73t-73 177z m286 125q0-8 5-13t13-5h125v-196q0-8 5-13t12-5h108q7 0 12 5t5 13v196h125q8 0 13 5t5 13q0 8-5 13l-196 196q-5 5-13 5t-13-5l-196-196q-5-6-5-13z" horiz-adv-x="1071.4" />
<glyph glyph-name="bitcoin" unicode="&#xe87b;" d="m31-7l18 102h62q27 0 32 28v225h9q-4 0-9 0v160q-7 38-50 38h-62v92l119-1q35 0 54 1v141h86v-138q45 1 68 1v137h86v-141q44-4 78-13t63-25 46-43 20-64q10-102-73-144 65-16 98-58t25-119q-4-40-18-70t-36-49-54-33-68-19-81-9v-142h-86v140q-45 0-68 1v-141h-86v142q-10 0-30 1t-31 0h-112z m260 101q5 0 21 0t27 0 29 1 33 2 32 5 31 8 26 11 22 17 14 22 5 29q0 20-8 35t-21 26-32 17-36 10-42 6-38 1-36 0-27-1v-189z m0 275q3 0 20 0t26 0 27 1 31 3 29 6 27 10 21 15 15 22 5 28q0 19-7 33t-17 23-27 16-31 9-34 5-33 1-30 0-22-1v-171z" horiz-adv-x="714.3" />
<glyph glyph-name="frown" unicode="&#xe87c;" d="m0 350q0 117 58 215t155 156 216 58 215-58 156-156 57-215-57-215-156-156-215-58-216 58-155 156-58 215z m71 0q0-73 29-139t76-113 114-77 139-28 138 28 114 77 76 113 29 139-29 139-76 114-114 76-138 28-139-28-114-76-76-114-29-139z m143 143q0 29 21 50t51 21 50-21 21-50-21-51-50-21-51 21-21 51z m10-329q21 68 77 109t128 41 127-41 77-109q4-14-2-27t-21-17-27 2-18 21q-14 45-52 72t-84 28-85-28-52-72q-4-15-17-21t-27-2q-15 4-21 17t-3 27z m276 329q0 29 21 50t50 21 51-21 21-50-21-51-51-21-50 21-21 51z" horiz-adv-x="857.1" />
<glyph glyph-name="meh" unicode="&#xe87d;" d="m0 350q0 117 58 215t155 156 216 58 215-58 156-156 57-215-57-215-156-156-215-58-216 58-155 156-58 215z m71 0q0-73 29-139t76-113 114-77 139-28 138 28 114 77 76 113 29 139-29 139-76 114-114 76-138 28-139-28-114-76-76-114-29-139z m143-107q0 14 11 25t25 11h357q15 0 25-11t11-25-11-25-25-11h-357q-14 0-25 11t-11 25z m0 250q0 29 21 50t51 21 50-21 21-50-21-51-50-21-51 21-21 51z m286 0q0 29 21 50t50 21 51-21 21-50-21-51-51-21-50 21-21 51z" horiz-adv-x="857.1" />
<glyph glyph-name="youtube-play" unicode="&#xe87e;" d="m0 350q0 54 1 84t4 76 13 82q9 41 38 69t70 32q123 14 374 14t374-14q40-4 70-32t39-69q7-36 12-82t4-76 1-84-1-84-4-76-13-82q-9-41-38-69t-70-32q-123-14-374-14t-374 14q-40 4-70 32t-39 69q-7 36-12 82t-4 76-1 84z m357-179q0-21 19-31 9-4 17-4 11 0 19 5l286 179q16 9 16 30t-16 30l-286 179q-17 11-36 1-19-10-19-31v-358z" horiz-adv-x="1000" />
<glyph glyph-name="reply" unicode="&#xe87f;" d="m0 493q0 14 11 25l285 286q11 10 25 10t26-10 10-25v-143h125q398 0 488-225 30-75 30-186 0-93-71-252-2-4-6-13t-7-17-8-12q-6-10-15-10-9 0-13 6t-5 14q0 5 1 15t2 13q3 38 3 69 0 56-10 101t-27 77-45 56-59 39-74 24-86 12-98 3h-125v-143q0-14-10-25t-26-11-25 11l-285 286q-11 10-11 25z" horiz-adv-x="1000" />
<glyph glyph-name="forward" unicode="&#xe880;" d="m0 225q0 111 30 186 90 225 488 225h125v143q0 14 10 25t26 10 25-10l285-286q11-11 11-25t-11-25l-285-286q-11-11-25-11t-26 11-10 25v143h-125q-55 0-98-3t-86-12-74-24-59-39-45-56-27-77-10-101q0-31 3-69 0-4 2-13t1-15q0-8-5-14t-13-6q-9 0-15 10-4 5-8 12t-7 17-6 13q-71 159-71 252z" horiz-adv-x="1000" />
<glyph glyph-name="reply-all" unicode="&#xe881;" d="m0 493q0 14 11 25l285 286q17 17 39 7 22-9 22-32v-39l-221-222q-11-11-11-25t11-25l221-222v-39q0-23-22-33-7-3-14-3-15 0-25 11l-285 286q-11 10-11 25z m214 0q0 14 11 25l286 286q16 17 39 7 21-9 21-32v-147q230-15 335-123 94-97 94-284 0-32-9-75t-22-77-27-69-22-51l-12-22q-4-10-15-10-3 0-5 1-14 4-13 19 24 223-59 315-36 40-95 62t-150 29v-140q0-23-21-33-8-3-14-3-15 0-25 11l-286 286q-11 10-11 25z" horiz-adv-x="1000" />
<glyph glyph-name="quote-left" unicode="&#xe882;" d="m0 100v393q0 58 23 111t61 91 91 61 111 23h35q15 0 26-11t10-25v-72q0-14-10-25t-26-10h-35q-59 0-101-42t-42-101v-18q0-22 16-38t37-16h125q45 0 76-31t32-76v-214q0-45-32-76t-76-31h-214q-44 0-76 31t-31 76z m500 0v393q0 58 23 111t61 91 91 61 111 23h35q15 0 26-11t10-25v-72q0-14-10-25t-26-10h-35q-59 0-101-42t-42-101v-18q0-22 15-38t38-16h125q45 0 76-31t32-76v-214q0-45-32-76t-76-31h-214q-44 0-76 31t-31 76z" horiz-adv-x="928.6" />
<glyph glyph-name="quote-right" unicode="&#xe883;" d="m0 457v214q0 45 31 76t76 32h214q45 0 76-32t32-76v-392q0-58-23-111t-61-91-91-62-111-22h-36q-14 0-25 10t-11 26v71q0 15 11 25t25 11h36q59 0 101 42t42 101v17q0 23-16 38t-38 16h-125q-44 0-76 31t-31 76z m500 0v214q0 45 31 76t76 32h214q45 0 76-32t32-76v-392q0-58-23-111t-61-91-91-62-111-22h-36q-14 0-25 10t-11 26v71q0 15 11 25t25 11h36q59 0 101 42t42 101v17q0 23-16 38t-38 16h-125q-44 0-76 31t-31 76z" horiz-adv-x="928.6" />
<glyph glyph-name="print" unicode="&#xe884;" d="m0 82v232q0 44 32 76t75 31h36v304q0 22 16 38t37 16h375q23 0 50-12t42-26l85-85q15-16 27-43t11-49v-143h35q45 0 76-31t32-76v-232q0-7-6-12t-12-6h-125v-89q0-22-16-38t-38-16h-536q-22 0-37 16t-16 38v89h-125q-7 0-13 6t-5 12z m214-89h500v143h-500v-143z m0 357h500v214h-89q-22 0-38 16t-16 38v89h-357v-357z m572-36q0-14 10-25t25-10 26 10 10 25-10 25-26 11-25-11-10-25z" horiz-adv-x="928.6" />
<glyph glyph-name="share" unicode="&#xe885;" d="m650 200q62 0 106-43t44-107q0-62-44-106t-106-44-106 44-44 106q0 6 1 14t1 12l-260 156q-42-32-92-32-62 0-106 44t-44 106 44 106 106 44q54 0 92-30l260 156q0 4-1 12t-1 12q0 62 44 106t106 44 106-43 44-107q0-62-44-106t-106-44q-52 0-90 32l-262-156q2-8 2-26 0-16-2-24l262-156q36 30 90 30z" horiz-adv-x="800" />
<glyph glyph-name="export" unicode="&#xe886;" d="m750 60l0 56 100 82 0-188q0-20-15-35t-35-15l-750 0q-20 0-35 15t-15 35l0 550q0 22 14 36t36 14l288 0q-32-24-59-49t-39-39l-10-12-130 0 0-450 650 0z m-82 348q-166 0-242-41t-160-181q0 8 1 22t9 56 22 79 44 83 70 79 107 56 149 23l0 156 332-250-332-260 0 178z" horiz-adv-x="1000" />
<glyph glyph-name="list-add" unicode="&#xe887;" d="m350 400q22 0 36-15t14-35-15-35-35-15l-300 0q-20 0-35 15t-15 35 14 35 36 15l300 0z m0-200q22 0 36-15t14-35-15-35-35-15l-300 0q-20 0-35 15t-15 35 14 35 36 15l300 0z m620 200q30 0 30-50t-30-50l-170 0 0-170q0-30-50-30t-50 30l0 170-164 0q-30 0-30 50t30 50l164 0 0 170q0 30 50 30t50-30l0-170 170 0z m-620 200q22 0 36-15t14-35-15-35-35-15l-300 0q-20 0-35 15t-15 35 14 35 36 15l300 0z" horiz-adv-x="1000" />
<glyph glyph-name="plus-alt" unicode="&#xe888;" d="m408 443l228 0 0-173-228 0 0-231-179 0 0 231-229 0 0 173 229 0 0 219 179 0 0-219z" horiz-adv-x="636" />
<glyph glyph-name="easel" unicode="&#xe889;" d="m363-76l0 115-150-57-15 26 165 101 0 58-318 0c-25 0-45 20-45 45 0 24 18 42 41 45l0 414c-23 1-41 21-41 43 0 25 20 45 45 45l326 0 19 49 11 0 19-49 331 0c25 0 45-20 45-45s-20-45-45-45l0-412c25 0 45-20 45-45s-20-45-45-45l-327 0 0-58 166-101-15-26-151 57 0-115c0-17-14-32-31-32-19 0-30 15-30 32z m331 337l0 405-595 0 0-405 595 0z" horiz-adv-x="796" />
<glyph glyph-name="help" unicode="&#xe88a;" d="m54 543q-1 8 3 16 89 148 259 148 45 0 90-17t81-46 59-72 23-88q0-30-8-57t-20-42-31-33-32-25-34-19q-23-13-38-37t-15-37q0-10-7-18t-16-9h-134q-8 0-14 10t-6 21v25q0 47 37 88t79 60q33 15 47 32t14 42q0 23-26 41t-60 18q-36 0-60-16-20-14-60-64-7-9-17-9-7 0-14 4l-91 70q-8 6-9 14z m160-528v134q0 9 7 16t16 6h134q8 0 15-6t7-16v-134q0-9-7-16t-15-6h-134q-9 0-16 6t-7 16z" horiz-adv-x="571.4" />
<glyph glyph-name="move" unicode="&#xe88b;" d="m0 350q0 15 11 25l143 143q10 11 25 11t25-11 10-25v-72h215v215h-72q-14 0-25 10t-11 25 11 26l143 142q11 11 25 11t25-11l143-142q11-11 11-26t-11-25-25-10h-72v-215h215v72q0 14 10 25t25 11 26-11l142-143q11-10 11-25t-11-25l-142-143q-11-11-26-11t-25 11-10 25v72h-215v-215h72q14 0 25-10t11-25-11-26l-143-142q-10-11-25-11t-25 11l-143 142q-11 11-11 26t11 25 25 10h72v215h-215v-72q0-14-10-25t-25-11-26 11l-142 143q-11 11-11 25z" horiz-adv-x="1000" />
<glyph glyph-name="sort" unicode="&#xe88c;" d="m0 243q0 14 11 25t25 11h500q14 0 25-11t10-25-10-25l-250-250q-11-11-25-11t-25 11l-250 250q-11 10-11 25z m0 214q0 15 11 25l250 250q10 11 25 11t25-11l250-250q10-10 10-25t-10-25-25-11h-500q-15 0-25 11t-11 25z" horiz-adv-x="571.4" />
<glyph glyph-name="sort-down" unicode="&#xe88d;" d="m0 243q0 14 11 25t25 11h500q14 0 25-11t10-25-10-25l-250-250q-11-11-25-11t-25 11l-250 250q-11 10-11 25z" horiz-adv-x="571.4" />
<glyph glyph-name="sort-up" unicode="&#xe88e;" d="m0 457q0 15 11 25l250 250q10 11 25 11t25-11l250-250q10-10 10-25t-10-25-25-11h-500q-15 0-25 11t-11 25z" horiz-adv-x="571.4" />
<glyph glyph-name="plus" unicode="&#xe88f;" d="m0 332v107q0 23 16 38t38 16h232v232q0 22 15 38t38 16h107q23 0 38-16t16-38v-232h232q22 0 38-16t16-38v-107q0-22-16-38t-38-16h-232v-232q0-22-16-38t-38-15h-107q-22 0-38 15t-15 38v232h-232q-23 0-38 16t-16 38z" horiz-adv-x="785.7" />
<glyph glyph-name="minus" unicode="&#xe890;" d="m0 332v107q0 23 16 38t38 16h678q22 0 38-16t16-38v-107q0-22-16-38t-38-15h-678q-23 0-38 15t-16 38z" horiz-adv-x="785.7" />
<glyph glyph-name="pencil" unicode="&#xe891;" d="m0-79v233l464 464 232-232-464-465h-232z m71 143h72v-71h60l50 51-131 131-51-51v-60z m95 143q0-12 13-12 5 0 9 4l303 302q3 4 3 10 0 12-12 12-5 0-9-4l-303-302q-4-4-4-10z m334 447l93 92q20 21 50 21 29 0 51-21l131-131q20-22 20-51 0-29-20-50l-93-93z" horiz-adv-x="857.1" />
<glyph glyph-name="pencil-alt" unicode="&#xe892;" d="m304 310l60 117 226 226c14-8 20-12 34-26s17-20 26-34l-226-226-118-60z m-304-303l113 444 237 236s80 23 165 0l-206-205-150-77-33-178c42-42 64-65 98-97l176 33 78 150 208 209c27-89-2-169-2-169l-236-237-445-113z" horiz-adv-x="697" />
<glyph glyph-name="plus-big" unicode="&#xe893;" d="m0 209l0 282 359 0 0 359 282 0 0-359 359 0 0-282-359 0 0-359-282 0 0 359-359 0z" horiz-adv-x="1000" />
<glyph glyph-name="code" unicode="&#xe894;" d="m25 314q0 8 6 13l260 260q5 6 13 6t12-6l28-28q6-5 6-13t-6-12l-219-220 219-219q6-6 6-13t-6-13l-28-28q-5-5-12-5t-13 5l-260 260q-6 6-6 13z m372-350l208 720q3 8 9 11t13 2l35-10q7-2 11-9t1-13l-208-721q-2-7-9-11t-13-1l-34 9q-8 3-11 9t-2 14z m325 118q0 7 5 13l219 219-219 220q-5 5-5 12t5 13l28 28q6 6 13 6t13-6l260-260q5-5 5-13t-5-13l-260-260q-6-5-13-5t-13 5l-28 28q-5 6-5 13z" horiz-adv-x="1071.4" />
<glyph glyph-name="cancel-big" unicode="&#xe895;" d="m0 71l279 279-279 279 221 221 279-279 279 279 221-221-279-279 279-279-221-221-279 279-279-279z" horiz-adv-x="1000" />
<glyph glyph-name="ok-big" unicode="&#xe896;" d="m0 260l162 162 166-164 508 510 164-164-510-510-162-162-162 164z" horiz-adv-x="1000" />
<glyph glyph-name="plus-squared" unicode="&#xe897;" d="m0 82v536q0 66 47 113t114 48h535q67 0 114-48t47-113v-536q0-66-47-113t-114-48h-535q-67 0-114 48t-47 113z m143 232q0-14 11-25t25-10h178v-179q0-14 11-25t25-11h71q15 0 25 11t11 25v179h179q14 0 25 10t10 25v72q0 14-10 25t-25 10h-179v179q0 15-11 25t-25 11h-71q-15 0-25-11t-11-25v-179h-178q-15 0-26-10t-10-25v-72z" horiz-adv-x="857.1" />
<glyph glyph-name="minus-squared" unicode="&#xe898;" d="m0 82v536q0 66 47 113t114 48h535q67 0 114-48t47-113v-536q0-66-47-113t-114-48h-535q-67 0-114 48t-47 113z m143 232q0-14 11-25t25-10h500q14 0 25 10t10 25v72q0 14-10 25t-25 10h-500q-15 0-26-10t-10-25v-72z" horiz-adv-x="857.1" />
<glyph glyph-name="folder-alt" unicode="&#xe899;" d="m0 118v536q0 51 37 88t88 37h179q51 0 88-37t37-88v-18h375q51 0 88-37t37-88v-393q0-51-37-88t-88-37h-679q-51 0-88 37t-37 88z" horiz-adv-x="928.6" />
<glyph glyph-name="folder-open" unicode="&#xe89a;" d="m0 118v536q0 51 37 88t88 37h179q51 0 88-37t37-88v-18h303q51 0 88-37t37-88v-90h-464q-53 0-110-26t-92-67l-188-221-2-3q0 2-1 7t0 7z m41-94q0 17 17 37l188 221q24 28 67 48t80 20h607q19 0 34-7t15-24q0-18-18-37l-187-221q-24-28-67-48t-81-20h-607q-19 0-33 7t-15 24z" horiz-adv-x="1071.4" />
<glyph glyph-name="doc-inv" unicode="&#xe89b;" d="m0-96v892q0 23 16 38t38 16h446v-304q0-22 16-38t38-15h303v-589q0-23-15-38t-38-16h-750q-23 0-38 16t-16 38z m571 660v264q13-8 21-16l227-228q8-7 16-20h-264z" horiz-adv-x="857.1" />
<glyph glyph-name="doc-text-inv" unicode="&#xe89c;" d="m0-96v892q0 23 16 38t38 16h446v-304q0-22 16-38t38-15h303v-589q0-23-15-38t-38-16h-750q-23 0-38 16t-16 38z m214 178q0-8 5-13t13-5h393q8 0 13 5t5 13v36q0 8-5 13t-13 5h-393q-8 0-13-5t-5-13v-36z m0 143q0-8 5-13t13-5h393q8 0 13 5t5 13v36q0 8-5 13t-13 5h-393q-8 0-13-5t-5-13v-36z m0 143q0-8 5-13t13-5h393q8 0 13 5t5 13v36q0 7-5 12t-13 5h-393q-8 0-13-5t-5-12v-36z m357 196v264q13-8 21-16l227-228q8-7 16-20h-264z" horiz-adv-x="857.1" />
<glyph glyph-name="lightbulb" unicode="&#xe89d;" d="m0 529q0 55 25 103t65 79 92 49 104 19 104-19 91-49 66-79 24-103q0-87-57-150-25-27-42-49t-33-53-19-60q26-15 26-46 0-20-14-35 14-15 14-36 0-29-25-45 8-13 8-26 0-26-18-40t-43-14q-11-25-34-39t-48-15-49 15-33 39q-26 0-44 14t-17 40q0 13 7 26-25 16-25 45 0 21 14 36-14 15-14 35 0 31 26 46-2 28-19 60t-33 53-41 49q-58 63-58 150z m71 0q0-57 38-101 6-6 17-18t17-19q72-85 79-166h127q8 81 79 166 6 6 17 19t17 18q38 44 38 101 0 40-19 74t-50 57-69 35-76 12-76-12-69-35-50-57-20-74z m197 71q0 7 5 13t13 5q28 0 55-9t49-30 21-50q0-8-6-13t-12-5-13 5-5 13q0 25-30 39t-59 14q-8 0-13 5t-5 13z" horiz-adv-x="571.4" />
<glyph glyph-name="ok-squared" unicode="&#xe89e;" d="m0 82v536q0 66 47 113t114 48h535q67 0 114-48t47-113v-536q0-66-47-113t-114-48h-535q-67 0-114 48t-47 113z m122 268q0-14 10-25l200-200q11-10 25-10t25 10l343 343q10 10 10 25t-10 25l-57 57q-11 10-25 10t-25-10l-261-261-118 118q-10 11-25 11t-25-11l-57-57q-10-11-10-25z" horiz-adv-x="857.1" />
<glyph glyph-name="mail-alt" unicode="&#xe89f;" d="m0 11v443q25-28 56-49 202-137 278-192 32-24 51-37t53-27 61-13h2q28 0 61 13t53 27 51 37q95 68 278 192 32 22 56 49v-443q0-37-26-63t-63-27h-822q-36 0-63 27t-26 63z m0 595q0 43 23 72t66 29h822q36 0 62-26t27-63q0-44-27-84t-68-69q-210-146-262-181-5-4-23-17t-30-22-29-18-33-15-27-5h-2q-12 0-27 5t-33 15-29 18-30 22-23 17q-51 35-147 101t-114 80q-35 23-65 64t-31 77z" horiz-adv-x="1000" />
<glyph glyph-name="mail" unicode="&#xe8a0;" d="m0 11v607q0 37 26 63t63 26h822q37 0 63-26t26-63v-607q0-37-26-63t-63-27h-822q-36 0-63 27t-26 63z m71 0q0-8 6-13t12-5h822q7 0 12 5t6 13v428q-18-20-39-37-149-114-238-188-28-24-46-38t-48-27-57-13h-2q-26 0-57 13t-48 27-46 38q-88 74-238 188-21 17-39 37v-428z m0 607q0-94 82-159 108-84 224-176 4-3 20-17t25-21 25-17 28-16 24-5h2q11 0 24 5t28 16 25 17 25 21 20 17q116 92 224 176 30 24 56 65t26 73v14t-1 7-1 7-3 5-5 4-8 2h-822q-7 0-12-6t-6-12z" horiz-adv-x="1000" />
<glyph glyph-name="blank" unicode="&#xe8a1;" d="m0 82v536q0 66 47 113t114 48h535q67 0 114-48t47-113v-536q0-66-47-113t-114-48h-535q-67 0-114 48t-47 113z" horiz-adv-x="857.1" />
<glyph glyph-name="circle" unicode="&#xe8a2;" d="m0 350q0 117 58 215t155 156 216 58 215-58 156-156 57-215-57-215-156-156-215-58-216 58-155 156-58 215z" horiz-adv-x="857.1" />
<glyph glyph-name="infinity" unicode="&#xe8a3;" d="m796 570q84 0 144-53t60-167q0-112-60-166t-144-54q-78 0-157 40t-139 106q-58-66-137-106t-157-40q-86 0-146 54t-60 166q0 114 60 167t146 53q78 0 157-39t137-105q58 66 138 105t158 39z m-590-352q60 0 127 37t113 95q-46 58-112 95t-128 37q-114 0-114-132t114-132z m590 0q114 0 114 132t-114 132q-62 0-129-37t-111-95q44-58 111-95t129-37z" horiz-adv-x="1000" />
<glyph glyph-name="cd" unicode="&#xe8a4;" d="m465 797q184 0 315-131t131-316-131-315-315-132-316 132-131 315 131 316 316 131z m1-556q45 0 78 32t32 78-32 78-78 33-78-33-33-78 33-78 78-32z" horiz-adv-x="928" />
<glyph glyph-name="lightbulb-alt" unicode="&#xe8a5;" d="m1 309q-2 12 7 22t22 11l90 16q14 2 26-5t13-20-7-23-24-13l-88-13q-14-2-25 5t-14 20z m2 251q-6 13 0 24t19 16 26-4l82-35q14-6 19-18t0-23-18-16-26 0l-82 39q-14 4-20 17z m160 207q2 13 14 21 10 5 22 2t21-16l49-76q7-12 5-26t-11-19-23-3-20 15l-51 76q-8 13-6 26z m57-241q17 39 49 66t75 41 94 14l4 0q51 0 94-14t75-41 50-66q43-104-15-227-22-43-47-92-14-25-25-73t-16-61q-4-12-16-14l-203 0q-12 2-18 14-29 111-39 134-25 49-47 92-58 131-15 227z m99-623q0 8 5 12t13 5l209 0q6 0 11-5t5-12l0-35q0-8-5-13t-11-5l-209 0q-18 0-18 18l0 35z m0 68l0 35q0 18 18 18l209 0q6 0 11-5t5-13l0-35q0-8-5-13t-11-4l-209 0q-8 0-13 4t-5 13z m94 754l0 90q0 16 8 25t21 10q12 0 21-10t9-25l0-90q0-14-9-23t-21-10q-13 0-21 10t-8 23z m193-53q-1 14 6 26l49 76q10 12 22 16t23-2q10-8 12-21t-6-26l-49-76q-10-12-21-15t-23 3-13 19z m118-339q2 13 12 20t25 5l90-16q13-2 22-12t7-21q-2-14-13-21t-26-4l-90 13q-14 2-22 13t-5 23z m8 187q-4 12 1 23t18 18l84 35q12 8 24 4t19-16 0-24-20-17l-82-39q-13-4-26 0t-18 16z" horiz-adv-x="881" />
<glyph glyph-name="asterisk-alt" unicode="&#xe8a6;" d="m0 395l57 176 351-116 0 370 184 0 0-370 351 116 57-176-352-113 217-299-148-108-217 299-217-299-148 108 217 299z" horiz-adv-x="1000" />
<glyph glyph-name="certificate" unicode="&#xe8a7;" d="m0 219l94 139-86 146 154 67 6 168 166-28 96 139 125-113 156 64 43-162 166-29-51-160 123-116-129-107 43-164-168-20-52-160-153 75-131-108-88 145-167-20 3 170z" horiz-adv-x="992" />
<glyph glyph-name="tag-alt" unicode="&#xe8a8;" d="m1000 714v-270l-595-595-405 405 595 595h270z m-160-160q28 28 28 68t-28 67-67 28-68-28-28-67 28-68 68-28 67 28z" horiz-adv-x="1000" />
<glyph glyph-name="cloud" unicode="&#xe8a9;" d="m1435 132q0-111-75-193t-186-89v-1h-870v1q-7-1-21-1-117 0-200 83t-83 200q0 74 37 139t101 103q-8 32-8 62 0 117 83 200t200 83q103 0 186-70 43 91 129 146t185 54q144 0 246-102t102-246q0-55-16-103 85-29 138-103t52-163z" horiz-adv-x="1435" />
<glyph glyph-name="pentagon" unicode="&#xe8aa;" d="m857 850l203-623-530-385-530 385 202 623 655 0z" horiz-adv-x="1049" />
<glyph glyph-name="pentagon-alt" unicode="&#xe8ab;" d="m768 727l147-453-385-279-385 279 147 453h476m89 123h-655l-202-623 530-385 530 385-203 623 0 0z" horiz-adv-x="1049" />
<glyph glyph-name="users-round" unicode="&#xe8ac;" d="m0 367q0 197 69 197 4 0 25-11t54-24 66-12q38 0 75 13-3-21-3-37 0-78 45-143-90-3-148-72h-75q-45 0-77 23t-31 66z m71 340q0 59 42 101t101 42 101-42 42-101-42-101-101-42-101 42-42 101z m72-713q0 30 2 58t8 61 14 61 24 54 35 45 48 30 62 11q6 0 24-12t41-26 59-27 76-12 75 12 60 27 41 26 23 12q35 0 63-11t47-30 35-45 24-54 15-61 8-61 2-58q0-66-41-105t-108-39h-488q-68 0-108 39t-41 105z m178 499q0 89 63 151t152 63 151-63 63-151-63-152-151-63-152 63-63 152z m393 214q0 59 42 101t101 42 101-42 42-101-42-101-101-42-101 42-42 101z m27-357q45 65 45 143 0 16-3 37 37-13 74-13 33 0 67 12t54 24 24 11q69 0 69-197 0-43-31-66t-77-22h-75q-57 68-147 71z" horiz-adv-x="1071.4" />
<glyph glyph-name="user-round" unicode="&#xe8ad;" d="m0 66q0 30 2 58t8 61 15 60 24 55 34 45 48 30 62 11q5 0 24-12t41-27 60-27 75-12 74 12 61 27 41 27 24 12q34 0 62-11t48-30 34-45 24-55 15-60 8-61 2-58q0-67-41-106t-108-39h-488q-67 0-108 39t-41 106z m179 498q0 89 62 152t152 63 151-63 63-152-63-151-151-63-152 63-62 151z" horiz-adv-x="785.7" />
<glyph glyph-name="link-01" unicode="&#xe8ae;" d="m9 600q0 67 47 113l82 82q47 46 114 46 67 0 114-47l114-116q47-46 47-113 0-69-49-117l49-49q48 49 116 49 67 0 114-47l116-116q47-47 47-114t-48-113l-82-81q-46-47-113-47-68 0-114 48l-115 115q-46 47-46 114 0 68 49 116l-49 49q-48-49-116-49-67 0-114 47l-116 116q-47 47-47 114z m107 0q0-22 16-38l116-116q15-15 38-15 23 0 40 17-2 2-11 11t-12 12-8 10-7 14-2 16q0 22 15 38t38 15q9 0 16-2t14-7 10-8 12-12 11-11q18 17 18 41 0 22-15 38l-115 115q-16 16-38 16-22 0-38-15l-82-82q-16-15-16-37z m392-393q0-23 16-38l115-116q15-15 38-15 22 0 38 15l82 81q15 16 15 37 0 23-15 38l-116 116q-16 16-38 16-24 0-40-18 1-1 10-10t12-12 9-11 7-14 2-15q0-23-16-38t-38-16q-8 0-15 2t-14 7-11 9-12 12-10 10q-19-17-19-40z" horiz-adv-x="928.6" />
<glyph glyph-name="camera" unicode="&#xe8af;" d="m0 64v500q0 59 42 101t101 42h125l28 76q11 27 39 47t58 20h286q29 0 57-20t39-47l29-76h125q59 0 101-42t41-101v-500q0-59-41-101t-101-42h-786q-59 0-101 42t-42 101z m286 250q0-103 73-176t177-74 176 74 74 176-74 177-176 73-177-73-73-177z m89 0q0 67 47 114t114 47 113-47 47-114-47-113-113-47-114 47-47 113z" horiz-adv-x="1071.4" />
<glyph glyph-name="unlink-01" unicode="&#xe8b0;" d="m0 243q0 8 5 13t13 5h178q8 0 13-5t5-13-5-13-13-5h-178q-8 0-13 5t-5 13z m9 357q0 67 47 113l82 82q47 46 114 46 67 0 114-47l186-187q12-12 23-32l-133-10-152 153q-16 16-38 16-22 0-38-15l-82-82q-16-15-16-37 0-22 16-38l153-153-10-134q-20 12-32 24l-187 187q-47 48-47 114z m62-589q0 7 5 13l143 142q6 5 13 5t13-5q5-5 5-12t-5-13l-143-143q-5-5-13-5-6 0-13 5-5 6-5 13z m233-72v179q0 8 5 13t12 5 13-5 5-13v-179q0-8-5-13t-13-5-12 5-5 13z m49 257l134 10 152-153q15-15 38-15t38 15l82 81q15 16 15 37 0 23-15 38l-153 154 10 133q20-12 31-23l188-188q47-48 47-114 0-67-48-113l-82-81q-46-47-113-47-68 0-114 48l-186 187q-12 11-24 31z m236 458v178q0 8 5 13t13 5 13-5 5-13v-178q0-8-5-13t-13-5-13 5-5 13z m90-36q0 7 5 13l142 142q6 5 13 5t13-5q5-5 5-12t-5-13l-143-143q-6-5-13-5t-12 5q-5 6-5 13z m35-89q0 7 5 12t13 5h179q8 0 13-5t5-12-5-13-13-5h-179q-8 0-13 5t-5 13z" horiz-adv-x="928.6" />
<glyph glyph-name="glyph" unicode="&#xe8b1;" d="m906 850h-282c-51 0-124-30-160-66l-437-437c-36-36-36-96 0-133l337-337c37-36 97-36 133 0l437 437c36 36 66 109 66 160v282c0 52-42 94-94 94z m-125-312c-51 0-93 42-93 93s42 94 93 94 94-42 94-94-42-93-94-93z" horiz-adv-x="1000" />
<glyph glyph-name="play" unicode="&#xe8b2;" d="m0-61v822q0 14 9 20t22-2l741-412q13-7 13-17t-13-17l-741-412q-13-7-22-2t-9 20z" horiz-adv-x="785.7" />
<glyph glyph-name="stop" unicode="&#xe8b3;" d="m0-43v786q0 14 11 25t25 11h785q15 0 26-11t10-25v-786q0-14-10-25t-26-11h-785q-15 0-25 11t-11 25z" horiz-adv-x="857.1" />
<glyph glyph-name="pause" unicode="&#xe8b4;" d="m0-43v786q0 14 11 25t25 11h285q15 0 26-11t10-25v-786q0-14-10-25t-26-11h-285q-15 0-25 11t-11 25z m500 0v786q0 14 11 25t25 11h285q15 0 26-11t10-25v-786q0-14-10-25t-26-11h-285q-15 0-25 11t-11 25z" horiz-adv-x="857.1" />
<glyph glyph-name="to-end" unicode="&#xe8b5;" d="m0-61v822q0 14 7 18t18-8l396-396q5-4 8-11v379q0 14 10 25t25 11h72q14 0 25-11t10-25v-786q0-14-10-25t-25-11h-72q-14 0-25 11t-10 25v379q-3-6-8-11l-396-396q-10-11-18-8t-7 18z" horiz-adv-x="571.4" />
<glyph glyph-name="to-start" unicode="&#xe8b6;" d="m0-43v786q0 14 11 25t25 11h71q15 0 25-11t11-25v-379q2 7 7 11l396 396q11 11 18 8t7-18v-822q0-14-7-18t-18 8l-396 396q-5 5-7 11v-379q0-14-11-25t-25-11h-71q-15 0-25 11t-11 25z" horiz-adv-x="571.4" />
<glyph glyph-name="ajust" unicode="&#xe8b7;" d="m0 350q0 117 58 215t155 156 216 58 215-58 156-156 57-215-57-215-156-156-215-58-216 58-155 156-58 215z m125 0q0-83 41-152t110-111 153-41v608q-83 0-153-41t-110-111-41-152z" horiz-adv-x="857.1" />
<glyph glyph-name="magic" unicode="&#xe8b8;" d="m15 82q0 15 10 25l718 718q10 10 25 10t25-10l110-111q10-10 10-25t-10-25l-717-718q-10-10-25-10t-25 10l-111 111q-10 10-10 25z m56 697l55 16 17 55 17-55 54-16-54-17-17-55-17 55z m108-108l109 34 33 109 34-109 109-34-109-33-34-109-33 109z m250 108l54 16 17 55 17-55 54-16-54-17-17-55-17 55z m175-194l60-59 164 163-60 60z m182-164l54 17 17 55 17-55 55-17-55-16-17-55-17 55z" horiz-adv-x="928.6" />
<glyph glyph-name="foursquare" unicode="&#xe8b9;" d="m0 350q0 42 30 71l327 328q30 30 72 30t71-30l148-148-222-223-105 105q-24 24-55 24-33 0-56-23l-67-68q-24-22-24-55 0-32 24-56l226-227q17-16 38-21l3-2h16q33 0 55 23l345 345 2-2q29-29 29-71t-29-72l-328-327q-29-30-71-30t-72 30l-327 327q-30 30-30 72z m169 11q0 12 7 20l68 67q7 8 19 8t21-8l140-141 320 321q9 8 21 8t20-8l67-67q7-8 7-20t-7-20l-408-408q-9-8-20-8-3 0-4 1-10 1-17 7l-227 228q-7 8-7 20z" horiz-adv-x="928.6" />
<glyph glyph-name="enter" unicode="&#xe8ba;" d="m100 200q-42 0-71 30t-29 70l0 350 140 0 0-310 364 0 0 150 240-220-240-220 0 150-404 0z" horiz-adv-x="744" />
<glyph glyph-name="cw" unicode="&#xe8bb;" d="m0 350q0 87 34 166t92 137 136 92 167 34q82 0 158-31t137-88l72 72q16 18 39 8 22-9 22-33v-250q0-14-10-25t-26-11h-250q-23 0-32 23-10 22 7 38l77 77q-82 77-194 77-58 0-111-23t-91-61-62-91-22-111 22-111 62-91 91-61 111-23q66 0 125 29t100 82q4 6 13 7 8 0 14-5l76-77q5-4 6-11t-5-13q-60-74-147-114t-182-41q-87 0-167 34t-136 92-92 137-34 166z" horiz-adv-x="857.1" />
<glyph glyph-name="palette" unicode="&#xe8bc;" d="m857 622q72-48 101-110t20-104-35-48q-16-4-54 10t-80 10-80-46q-30-46-21-75t34-65 23-50q-2-26-36-63t-126-74-216-37q-186 0-291 101t-95 245q8 118 104 235t216 151q290 84 536-80z m-318-466q30 0 52 22t22 54-22 53-52 21q-32 0-54-21t-22-53 22-54 54-22z" horiz-adv-x="980" />
<glyph glyph-name="save" unicode="&#xe8bd;" d="m0-25v750q0 22 16 38t38 16h517q23 0 50-12t42-26l156-157q16-15 27-42t11-49v-518q0-22-15-38t-38-16h-750q-23 0-38 16t-16 38z m71 18h72v232q0 22 16 38t37 16h465q22 0 38-16t15-38v-232h72v500q0 8-6 21t-11 20l-157 156q-5 6-19 12t-22 5v-232q0-22-15-38t-38-16h-322q-22 0-37 16t-16 38v232h-72v-714z m143 0h429v214h-429v-214z m143 518q0-8 5-13t13-5h107q7 0 13 5t5 13v178q0 8-5 13t-13 5h-107q-7 0-13-5t-5-13v-178z" horiz-adv-x="857.1" />
<glyph glyph-name="trash-alt" unicode="&#xe8be;" d="m0 633l0 141 289 0 0 76 246 0 0-76 289 0 0-141-824 0z m43-783l0 676 738 0 0-676-738 0z" horiz-adv-x="824" />
<glyph glyph-name="marquee" unicode="&#xe8bf;" d="m0 850l0-143 143 0 0 143-143 0z m286 0l0-143 143 0 0 143-143 0z m285 0l0-143 143 0 0 143-143 0z m286 0l0-143 143 0 0 143-143 0z m-857-286l0-143 143 0 0 143-143 0z m857 0l0-143 143 0 0 143-143 0z m-857-285l0-143 143 0 0 143-143 0z m857 0l0-143 143 0 0 143-143 0z m-857-286l0-143 143 0 0 143-143 0z m286 0l0-143 143 0 0 143-143 0z m285 0l0-143 143 0 0 143-143 0z m286 0l0-143 143 0 0 143-143 0z" horiz-adv-x="1000" />
<glyph glyph-name="layers" unicode="&#xe8c0;" d="m18 183l446-112 447 112 0-112-447-112-446 112 0 112z m0 223l446-112 447 112 0-112-447-111-446 111 0 112z m0 223l446 112 447-112 0-111-447-112-446 112 0 111z" horiz-adv-x="928" />
<glyph glyph-name="inbox-alt" unicode="&#xe8c1;" d="m0-150l0 483 328 0q0-73 51-123t121-49 121 49 51 123l328 0 0-483-1000 0z m279 768l119 0 0 232 204 0 0-232 119 0-221-332z" horiz-adv-x="1000" />
<glyph glyph-name="box" unicode="&#xe8c2;" d="m36 600v143q0 14 10 25t25 11h858q14 0 25-11t10-25v-143q0-15-10-25t-25-11h-858q-14 0-25 11t-10 25z m35-643v536q0 14 11 25t25 11h786q14 0 25-11t11-25v-536q0-14-11-25t-25-11h-786q-14 0-25 11t-11 25z m322 429q0-15 10-25t26-11h142q15 0 26 11t10 25-10 25-26 10h-142q-15 0-26-10t-10-25z" horiz-adv-x="1000" />
<glyph glyph-name="wrench" unicode="&#xe8c3;" d="m0 21l463 463q-25 68-10 145t72 134 133 72 147-10l-162-162 45-117 115-45 164 164q25-70 9-147t-73-133-132-72-148 8l-463-462z m113-2q0-20 14-34t33-13 33 13 14 34-14 33-33 14-33-14-14-33z" horiz-adv-x="982" />
<glyph glyph-name="form" unicode="&#xe8c4;" d="m0 82v607q0 37 26 63t63 27h822q37 0 63-27t26-63v-607q0-37-26-63t-63-26h-822q-36 0-63 26t-26 63z m71 0q0-7 6-12t12-6h822q7 0 12 6t6 12v464q0 8-6 13t-12 5h-822q-7 0-12-5t-6-13v-464z m72 72v35q0 8 5 13t13 5h35q8 0 13-5t5-13v-35q0-8-5-13t-13-5h-35q-7 0-13 5t-5 13z m0 142v36q0 7 5 13t13 5h35q8 0 13-5t5-13v-36q0-7-5-12t-13-5h-35q-7 0-13 5t-5 12z m0 143v36q0 7 5 13t13 5h35q8 0 13-5t5-13v-36q0-7-5-12t-13-6h-35q-7 0-13 6t-5 12z m143-285v35q0 8 5 13t13 5h535q8 0 13-5t5-13v-35q0-8-5-13t-13-5h-535q-8 0-13 5t-5 13z m0 142v36q0 7 5 13t13 5h535q8 0 13-5t5-13v-36q0-7-5-12t-13-5h-535q-8 0-13 5t-5 12z m0 143v36q0 7 5 13t13 5h535q8 0 13-5t5-13v-36q0-7-5-12t-13-6h-535q-8 0-13 6t-5 12z" horiz-adv-x="1000" />
<glyph glyph-name="address-book" unicode="&#xe8c5;" d="m0-150l0 1000 1000 0 0-178-109 0 0-95 109 0 0-178-109 0 0-98 109 0 0-178-109 0 0-95 109 0 0-178-1000 0z m193 285l504 0 0 155-187 111q37 19 58 54t22 77q0 58-42 101t-103 43-102-43-42-101q0-43 22-77t58-54l-188-111 0-155z" horiz-adv-x="1000" />
<glyph glyph-name="droplet" unicode="&#xe8c6;" d="m290 822q14-118 60-219t92-159 82-136 36-160q0-114-83-196t-197-82-197 82-83 196q0 82 36 160t82 136 92 159 60 219q2 8 11 8t9-8z m-42-392q2 4-2 14-6 6-14 6t-12-6l-40-58q-32-46-48-70t-34-75-18-101q0-24 17-41t41-17q58 0 58 68 0 94 42 246 2 6 5 17t5 17z" horiz-adv-x="560" />
<glyph glyph-name="comment-1" unicode="&#xe8c7;" d="m0 96l0 713 1000 0 0-713-473 0-320-205 0 205-207 0z" horiz-adv-x="1000" />
<glyph glyph-name="folder-open-1" unicode="&#xe8c8;" d="m0-52l0 55 147 505 853 0-172-560-828 0z m0 205l0 510 139 0 68 90 217 0 68-90 336 0 0-121-724 0z" horiz-adv-x="1000" />
<glyph glyph-name="archive-bold" unicode="&#xe8c9;" d="m1217 806v-131q0-18-12-30t-31-13h-1131q-17 0-30 13t-13 30v131q0 17 13 30t30 13h1131q18 0 31-13t12-30z m-43-305v-609q0-17-13-30t-31-13h-1043q-18 0-31 13t-13 30v609q0 18 13 31t31 13h1043q18 0 31-13t13-31z m-304-152q0 27-19 46t-47 19h-391q-27 0-46-19t-19-46 19-46 46-19h391q27 0 47 19t19 46z" horiz-adv-x="1217" />
<glyph glyph-name="hash-1" unicode="&#xe8ca;" d="m2 207q4 25 25 42t46 16h149l36 170h-135q-28 0-46 21-17 22-12 51 5 25 26 42t46 16h149l31 150q6 26 26 42t46 17q30 0 47-21t11-51l-29-137h167l32 150q5 26 26 42t46 17q29 0 46-21 18-21 11-51l-29-137h136q28 0 46-21 17-22 11-51-5-25-25-42t-46-16h-149l-37-170h136q28 0 47-21 17-22 11-51-6-26-26-42t-46-17h-149l-32-150q-5-25-25-42t-46-16q-29 0-47 21-17 22-11 50l29 137h-167l-33-150q-5-25-25-42t-46-16q-28 0-46 21-17 22-12 50l30 137h-136q-29 0-46 22-18 20-11 51z m352 58h168l36 170h-168z" horiz-adv-x="912.1" />
<glyph glyph-name="font-1" unicode="&#xe8cb;" d="m0-74l86 0 353 918 112 0 351-918 98 0 0-70-359 0 0 70 109 0-82 217-416 0-82-217 107 0 0-70-277 0 0 70z m279 287l364 0-182 471z" horiz-adv-x="1000" />
<glyph glyph-name="fontsize" unicode="&#xe8cc;" d="m0 19l209 685q4 12 16 12l138 0q12 0 16-12l207-681q2-6 2-8 0-16-16-16l-125 0q-11 0-15 12l-35 123-206 0-35-123q-4-12-15-12l-125 0q-20 0-16 20z m223 248l142 0-72 252z m369-111q4 84 53 128 46 41 111 41 66 0 109-35l0 32q0 74-76 74-59 0-107-51-18-14-26 4l-41 68q-4 12 4 20 37 37 84 54 57 24 130 18t114-45q51-45 51-129l0-324q0-16-16-16l-99 0q-16 0-18 16l0 10q-47-37-109-37-67 2-111 45-51 48-53 127z m133-2q0-30 17-51 29-24 68-17t55 34l0 69q-13 25-37 31-57 20-86-14-17-23-17-52z" horiz-adv-x="998" />
<glyph glyph-name="bold-1" unicode="&#xe8cd;" d="m0-60l125 0 0 820-125 0 0 80 582 0q180 0 270-60t89-182q0-88-62-139t-184-64q147-14 226-79t79-173q0-145-111-215-110-68-344-68l-545 0 0 80z m379 0l94 0q125 0 185 49t61 154q0 105-62 157t-184 52l-94 0 0-412z m0 492l86 0q113 0 168 39 55 43 55 127 0 86-55 125-53 37-168 37l-86 0 0-328z" horiz-adv-x="1000" />
<glyph glyph-name="italic-1" unicode="&#xe8ce;" d="m0-150l14 70 127 0 172 858-127 0 13 72 391 0-14-72-127 0-172-858 127 0-13-70-391 0z" horiz-adv-x="590" />
<glyph glyph-name="adjust" unicode="&#xe8cf;" d="m0 350q0 207 147 354t353 146 354-146 146-354-146-354-354-146-353 146-147 354z m147 0q0-146 103-250t250-104l0 708q-146 0-250-104t-103-250z" horiz-adv-x="1000" />
<glyph glyph-name="tint" unicode="&#xe8d0;" d="m0 204q2 106 57 190 17 27 55 80t54 78q90 139 127 256 16 45 59 41 46 2 58-41 37-120 129-256 18-29 55-80t54-78q55-88 57-190-4-148-103-250-106-101-250-103-149 4-248 103-104 108-104 250z m154-78q2-37 28-62t60-26q37 2 63 28t25 60q0 27-14 47-17 23-27 41-25 41-33 63-2 13-14 11-11 2-15-11-8-28-30-63-6-10-15-22t-14-19q-14-20-14-47z" horiz-adv-x="705" />
<glyph glyph-name="align-left" unicode="&#xe8d1;" d="m0-89l0 156 1000 0 0-156-1000 0z m0 240l0 156 609 0 0-156-609 0z m0 242l0 156 789 0 0-156-789 0z m0 240l0 157 516 0 0-157-516 0z" horiz-adv-x="1000" />
<glyph glyph-name="align-center" unicode="&#xe8d2;" d="m0-89l0 156 1000 0 0-156-1000 0z m106 482l0 156 789 0 0-156-789 0z m89-242l0 156 610 0 0-156-610 0z m47 482l0 157 516 0 0-157-516 0z" horiz-adv-x="1000" />
<glyph glyph-name="align-right" unicode="&#xe8d3;" d="m0-89l0 156 1000 0 0-156-1000 0z m211 482l0 156 789 0 0-156-789 0z m180-242l0 156 609 0 0-156-609 0z m93 482l0 157 516 0 0-157-516 0z" horiz-adv-x="1000" />
<glyph glyph-name="align-justify" unicode="&#xe8d4;" d="m0-89l0 156 1000 0 0-156-1000 0z m0 240l0 156 1000 0 0-156-1000 0z m0 242l0 156 1000 0 0-156-1000 0z m0 240l0 157 1000 0 0-157-1000 0z" horiz-adv-x="1000" />
<glyph glyph-name="art-gallery" unicode="&#xe8d5;" d="m400 725c-250 0-400-200-400-300s50-175 150-175 150-25 150-100c0-100 75-175 175-175 325 0 475 175 475 350 0 300-250 400-550 400z m-62-100c34 0 62-28 62-62 0-35-28-63-62-63-35 0-63 28-63 63 0 34 28 62 63 62z m200 0c34 0 62-28 62-62 0-35-28-63-62-63-35 0-63 28-63 63 0 34 28 62 63 62z m200-100c34 0 62-28 62-62 0-35-28-63-62-63-35 0-63 28-63 63 0 34 28 62 63 62z m-575-50c34 0 62-28 62-62 0-35-28-63-62-63-35 0-63 28-63 63 0 34 28 62 63 62z m312-250c41 0 75-34 75-75s-34-75-75-75-75 34-75 75 34 75 75 75z" horiz-adv-x="950" />
<glyph glyph-name="graph-alt" unicode="&#xe8d6;" d="m0 493q0 57 41 98t98 41q58 0 99-41t40-98q0-40-21-73l282-281q19 12 39 17v388q-46 12-76 49t-30 87q0 57 41 98t99 40q57 0 98-40t40-98q0-49-30-87t-76-49v-388q20-5 39-17l282 281q-21 34-21 73 0 58 41 98t98 41 98-41 41-98-41-99-98-41q-37 0-72 22l-282-282q21-33 21-72 0-58-40-99t-98-41q-59 0-99 41t-41 99q0 39 21 72l-282 282q-35-22-72-22-57 0-98 41t-41 99z" horiz-adv-x="1222.7" />
<glyph glyph-name="split" unicode="&#xe8d7;" d="m576 797l112 0 0-108q0-115-82-197l-316-314q-44-45-48-106l111 0-167-169-168 169 113 0q6 111 80 185l316 314q49 50 49 118l0 108z m110-725l113 0-167-169-168 169 111 0q-4 61-48 106l-63 62 80 79 62-62q74-74 80-185z" horiz-adv-x="817" />
<glyph glyph-name="myspace" unicode="&#xe8d8;" d="m0 175l0 350 140 0 0-207 805 0 0 207 141 0 0-350-1086 0z" horiz-adv-x="1086" />
<glyph glyph-name="off" unicode="&#xe8d9;" d="m0 350q0 207 147 354l101-102q-105-103-105-252t104-253 253-104 253 104 104 253-105 252l102 102q146-147 146-354t-146-354-354-146-353 146-147 354z m428-78l0 578 144 0 0-578-144 0z" horiz-adv-x="1000" />
<glyph glyph-name="sitemap" unicode="&#xe8da;" d="m0-25v179q0 22 16 38t38 15h53v107q0 29 21 51t51 21h285v107h-53q-23 0-38 15t-16 38v179q0 22 16 38t38 16h178q23 0 38-16t16-38v-179q0-22-16-38t-38-15h-53v-107h285q29 0 51-21t21-51v-107h53q23 0 38-15t16-38v-179q0-22-16-38t-38-16h-178q-22 0-38 16t-16 38v179q0 22 16 38t38 15h53v107h-285v-107h53q23 0 38-15t16-38v-179q0-22-16-38t-38-16h-178q-23 0-38 16t-16 38v179q0 22 16 38t38 15h53v107h-285v-107h53q22 0 38-15t16-38v-179q0-22-16-38t-38-16h-178q-23 0-38 16t-16 38z" horiz-adv-x="1000" />
<glyph glyph-name="view-mode" unicode="&#xe8db;" d="m0-76l926 926 74-74-926-926z m0 410l0 235 234 0 0-235-234 0z m0 280l0 234 234 0 0-234-234 0z m275-280l0 235 235 0z m0 280l0 234 235 0 0-234-235 0z m237-762l0 131 488 0 0-131-488 0z m0 168l0 131 488 0 0-131-488 0z m31 168l145 131 312 0 0-131-457 0z" horiz-adv-x="1000" />
<glyph glyph-name="th-large-1" unicode="&#xe8dc;" d="m0-150l0 438 438 0 0-438-438 0z m0 563l0 437 438 0 0-437-438 0z m563-563l0 438 437 0 0-438-437 0z m0 563l0 437 437 0 0-437-437 0z" horiz-adv-x="1000" />
<glyph glyph-name="th-1" unicode="&#xe8dd;" d="m0-150l0 250 250 0 0-250-250 0z m0 375l0 250 250 0 0-250-250 0z m0 375l0 250 250 0 0-250-250 0z m375-750l0 250 250 0 0-250-250 0z m0 375l0 250 250 0 0-250-250 0z m0 375l0 250 250 0 0-250-250 0z m375-750l0 250 250 0 0-250-250 0z m0 375l0 250 250 0 0-250-250 0z m0 375l0 250 250 0 0-250-250 0z" horiz-adv-x="1000" />
<glyph glyph-name="website" unicode="&#xe8de;" d="m0-119l0 938 1000 0 0-938-1000 0z m123 123l754 0 0 692-754 0 0-692z m82 78l0 166 166 0 0-166-166 0z m0 219l0 307 588 0 0-307-588 0z m211-219l0 166 166 0 0-166-166 0z m211 0l0 166 166 0 0-166-166 0z" horiz-adv-x="1000" />
<glyph glyph-name="paper-plane" unicode="&#xe8df;" d="m894 720q14 4 22-3t4-19q-2-6-72-310t-74-316q-2-14-14-19t-24 1l-248 134-30 16 22 26q388 420 394 426 4 4-1 9t-9 1l-550-402-112 44-190 76q-12 4-12 12t12 12q8 4 441 157t441 155z m-582-728l0 204 160-82q-130-116-142-128-18-14-18 6z" horiz-adv-x="921" />
<glyph glyph-name="spinner" unicode="&#xe8e0;" d="m188 350c0 12 0 24 2 35l-181 59c-6-30-9-62-9-94 0-144 61-273 158-365l112 154c-51 56-82 130-82 211z m625 0c0-81-32-155-82-211l111-154c97 92 158 221 158 365 0 32-3 64-9 94l-180-59c1-11 2-23 2-35z m-250 306c89-18 165-75 209-152l181 59c-72 152-217 262-390 283v-190z m-335-152c44 77 120 134 210 152v190c-173-21-319-131-391-283l181-59z m401-438c-39-18-83-28-129-28s-90 10-129 28l-112-154c71-40 154-62 241-62s170 22 241 62l-112 154z" horiz-adv-x="1000" />
<glyph glyph-name="bold" unicode="&#xe8e1;" d="m691 377c37 43 59 99 59 161 0 137-112 250-250 250h-312v-876h375c137 0 250 113 250 251 0 90-49 170-122 214z m-316 286h99c55 0 99-57 99-125s-44-125-99-125h-99v250z m155-625h-155v250h155c57 0 104-57 104-125s-47-125-104-125z" horiz-adv-x="1000" />
<glyph glyph-name="books" unicode="&#xe8e2;" d="m563 568l237 79 199-592-237-80z m-563-593h250v688h-250v-688z m63 563h125v-63h-125v63z m250-563h250v688h-250v-688z m62 563h125v-63h-125v63z" horiz-adv-x="1000" />
<glyph glyph-name="underline" unicode="&#xe8e3;" d="m688 788h125v-407c0-155-140-281-313-281-173 0-312 126-312 281v407h125v-407c0-39 17-77 50-106 36-32 85-50 137-50 53 0 101 18 137 50 33 29 51 67 51 106v407z m-500-750h625v-126h-625z" horiz-adv-x="1000" />
<glyph glyph-name="italic" unicode="&#xe8e4;" d="m875 788v-63h-125l-312-750h125v-63h-438v63h125l313 750h-125v63z" horiz-adv-x="1000" />
<glyph glyph-name="striped" unicode="&#xe8e5;" d="m1000 350v-62h-229c27-38 42-81 42-125 0-70-36-136-99-183-58-44-134-68-214-68-80 0-156 24-214 68-63 47-98 113-98 183h125c0-68 85-125 187-125s188 57 188 125c0 67-86 125-188 125h-500v62h293c-3 2-5 3-7 5-63 47-98 113-98 183 0 69 35 135 98 182 58 44 134 68 214 68 80 0 156-24 214-68 63-47 99-113 99-182h-125c0 67-86 125-188 125-102 0-187-58-187-125 0-68 85-125 187-125 77 0 150-23 208-63h292z" horiz-adv-x="1000" />
<glyph glyph-name="columns" unicode="&#xe8e6;" d="m0 11v678q0 37 26 63t63 27h750q37 0 63-27t27-63v-678q0-37-27-63t-63-27h-750q-36 0-63 27t-26 63z m71 0q0-8 6-13t12-5h340v643h-358v-625z m429-18h339q8 0 13 5t5 13v625h-357v-643z" horiz-adv-x="928.6" />
<glyph glyph-name="paragraph" unicode="&#xe8e7;" d="m375 850h500v-125h-125v-875h-125v875h-125v-875h-125v500c-138 0-250 112-250 250s112 250 250 250z" horiz-adv-x="1000" />
<glyph glyph-name="compass" unicode="&#xe8e8;" d="m500 850c-276 0-500-224-500-500s224-500 500-500 500 224 500 500-224 500-500 500z m0-906c-224 0-406 182-406 406s182 406 406 406 406-182 406-406-182-406-406-406z m94 500l-281 156h-63v-62l156-282 282-156h62v63l-156 281z m-94-156c-34 0-62 28-62 62s28 63 62 63c35 0 63-28 63-63 0-34-28-62-63-62z" horiz-adv-x="1000" />
<glyph glyph-name="clock" unicode="&#xe8e9;" d="m643 118l-205 206v276h125v-224l169-169z m-143 732c-276 0-500-224-500-500s224-500 500-500 500 224 500 500-224 500-500 500z m0-875c-207 0-375 168-375 375s168 375 375 375c207 0 375-168 375-375 0-207-168-375-375-375z" horiz-adv-x="1000" />
<glyph glyph-name="alerm" unicode="&#xe8ea;" d="m563 313l106-106-88-89-143 144v213h125z m250 475c103 0 187-84 187-188 0-63-31-119-80-153-45 120-141 215-261 261 34 48 90 80 154 80z m-472-80c-120-46-216-141-261-261-48 34-80 90-80 153 0 104 84 188 188 188 63 0 119-32 153-80z m159-45c-207 0-375-168-375-375 0-91 32-174 85-239l-22-199h62l63 113c55-32 119-51 187-51 68 0 132 19 188 51l0 0 62-113h63l-23 199c53 65 85 148 85 239 0 207-168 375-375 375z m0-625c-138 0-250 111-250 250s112 250 250 250 250-112 250-250-112-250-250-250z" horiz-adv-x="1000" />
<glyph glyph-name="calendar-dots" unicode="&#xe8eb;" d="m313 475h125v-125h-125z m187 0h125v-125h-125z m188 0h125v-125h-125z m-563-375h125v-125h-125z m188 0h125v-125h-125z m187 0h125v-125h-125z m-187 188h125v-125h-125z m187 0h125v-125h-125z m188 0h125v-125h-125z m-563 0h125v-125h-125z m688 562v-62h-125v62h-438v-62h-125v62h-125v-1000h938v1000h-125z m62-938h-812v688h812v-688z" horiz-adv-x="1000" />
<glyph glyph-name="profile" unicode="&#xe8ec;" d="m250 538c0 138 112 250 250 250s250-112 250-250c0-139-112-250-250-250-138 0-250 111-250 250z m500-313h-500c-138 0-250-112-250-250v-63h1000v63c0 138-112 250-250 250z" horiz-adv-x="1000" />
<glyph glyph-name="flash" unicode="&#xe8ed;" d="m375 850l-375-500h375l-250-500 875 625h-500l375 375z" horiz-adv-x="1000" />
<glyph glyph-name="glyph-1" unicode="&#xe8ee;" d="m1000 288v62h-189c-5 71-31 136-70 188h158l69 273-61 16-56-227h-171c-1 1-2 2-3 2 7 19 11 40 11 61 0 103-84 187-188 187s-187-84-187-187c0-21 3-42 10-61-1 0-2-1-3-2h-171l-56 227-61-16 69-273h158c-39-52-64-117-70-188h-189v-62h189c4-45 15-87 33-125h-121l-69-274 61-15 56 226h110c57-76 144-125 241-125s184 49 241 125h110l56-226 61 15-69 274h-121c18 38 30 80 33 125h189z" horiz-adv-x="1000" />
<glyph glyph-name="trahs-other" unicode="&#xe8ef;" d="m188-150h625l62 688h-750z m437 875v125h-250v-125h-312v-187l62 62h750l63-62v187h-313z m-62 0h-125v63h125v-63z" horiz-adv-x="1000" />
<glyph glyph-name="link" unicode="&#xe8f0;" d="m931 777l-4 4c-92 92-242 92-334 0l-213-213c-92-92-92-242 0-334l4-4c7-8 16-15 24-21l78 78c-9 5-18 12-26 19l-4 4c-49 50-49 132 0 181l213 213c50 50 132 50 182 0l3-3c50-50 50-132 0-182l-96-96c17-41 25-85 24-129l149 149c92 92 92 242 0 334z m-315-307c-7 8-15 15-24 21l-78-78c9-5 18-12 26-19l4-4c50-50 50-131 0-181l-213-213c-50-50-132-50-181 0l-4 3c-50 50-50 132 0 182l96 96c-17 41-25 85-24 129l-149-149c-92-92-92-242 0-334l4-4c92-92 242-92 334 0l213 213c92 92 92 242 0 334l-4 4z" horiz-adv-x="1000" />
<glyph glyph-name="attachment" unicode="&#xe8f1;" d="m682 531l-64 63-317-317c-53-53-53-138 0-190 52-53 138-53 190 0l381 380c87 88 87 230 0 317-88 88-230 88-317 0l-400-399c0-1-1-1-1-1-122-122-122-320 0-442 122-123 320-123 443 0 0 0 0 0 0 0l0 0 273 273-63 64-273-273c0 0-1-1-1-1-87-87-228-87-315 0-87 87-87 229 0 315 0 1 0 1 0 1l0 0 400 400c53 52 138 52 190 0 53-53 53-138 0-190l-380-381c-18-17-46-17-64 0-17 18-17 46 0 63l318 318z" horiz-adv-x="1000" />
<glyph glyph-name="exit" unicode="&#xe8f2;" d="m375 350h-312v125h312v125l188-187-188-188z m625 500v-812l-375-188v188h-375v250h63v-188h312v563l250 125h-562v-250h-63v312z" horiz-adv-x="1000" />
<glyph glyph-name="cancel-circled" unicode="&#xe8f3;" d="m0 350q0 117 58 215t155 156 216 58 215-58 156-156 57-215-57-215-156-156-215-58-216 58-155 156-58 215z m125 0q0-83 41-152t110-111 153-41 152 41 110 111 41 152-41 152-110 111-152 41-153-41-110-111-41-152z m114-89q0 7 6 13l76 76-76 76q-6 6-6 13t6 13l81 82q6 5 13 5t13-5l77-77 76 77q6 5 13 5t13-5l81-82q6-5 6-13t-6-13l-76-76 76-76q6-6 6-13t-6-13l-81-82q-6-5-13-5t-13 5l-76 77-77-77q-5-5-13-5t-13 5l-81 82q-6 5-6 13z" horiz-adv-x="857.1" />
<glyph glyph-name="reload-big" unicode="&#xe8f4;" d="m125 538h625v-188l250 250-250 250v-187h-750v-375h125z m750-375h-625v187l-250-250 250-250v188h750v375h-125z" horiz-adv-x="1000" />
<glyph glyph-name="ok-circled" unicode="&#xe8f5;" d="m0 350q0 117 58 215t155 156 216 58 215-58 156-156 57-215-57-215-156-156-215-58-216 58-155 156-58 215z m125 0q0-83 41-152t110-111 153-41 152 41 110 111 41 152-41 152-110 111-152 41-153-41-110-111-41-152z m68 0q0 15 11 25l57 57q10 11 25 11t25-11l82-82 153 153q11 11 25 11t26-11l56-56q11-11 11-26t-11-25l-235-235q-11-11-25-11t-25 11l-164 164q-11 11-11 25z" horiz-adv-x="857.1" />
<glyph glyph-name="reload-small" unicode="&#xe8f6;" d="m313 225v188h187l-250 250-250-250h188v-313h375l-125 125z m500 63v312h-375l125-125h125v-187h-188l250-250 250 250z" horiz-adv-x="1000" />
<glyph glyph-name="shufle" unicode="&#xe8f7;" d="m1000 600l-250 250v-187c-128 0-225-31-298-94-6-4-10-9-15-13 27-37 47-76 66-112 47 57 115 94 247 94v-375c-211 0-259 95-319 215-34 67-68 136-132 191-74 63-171 94-299 94v-125c211 0 259-96 319-216 34-67 68-136 133-191 73-63 170-93 298-93v-188l250 250-250 250 250 250z m-1000-437v-125c128 0 225 30 299 93 5 4 10 9 14 13-27 37-47 76-66 113-47-57-115-94-247-94z" horiz-adv-x="1000" />
<glyph glyph-name="fff" unicode="&#xe8f8;" d="m781 834c-88 0-145 16-236 16-294 0-432-168-432-338 0-100 48-133 141-133-6 15-18 30-18 102 0 199 75 257 172 261 0 0-80-775-309-868v-24h309l106 500h193l43 125h-210l51 240c58-11 115-23 164-23 60 0 116 18 146 158-37-12-77-16-120-16z" horiz-adv-x="1000" />
<glyph glyph-name="sum" unicode="&#xe8f9;" d="m920 133l43 92h37l-62-375h-938v72l324 383-324 323v222h957l43-250h-34l-18 38c-34 72-60 87-135 87h-647l345-345-291-342h530c113 0 143 40 170 95z" horiz-adv-x="1000" />
<glyph glyph-name="omega" unicode="&#xe8fa;" d="m688-25h250l62 125v-250h-375v209c128 55 219 193 219 354 0 209-154 373-344 373-190 0-344-164-344-373 0-161 91-299 219-354v-209h-375v250l63-125h250v32c-184 65-313 222-313 406 0 241 224 437 500 437 276 0 500-196 500-437 0-184-129-341-312-406v-32z" horiz-adv-x="1000" />
<glyph glyph-name="ok-blank" unicode="&#xe8fb;" d="m890 723c-31 31-69 47-113 47h-536c-44 0-82-16-113-47s-48-70-48-114v-536c0-44 16-82 48-113s69-48 113-48h536c44 0 82 16 113 48s48 69 48 113v536c0 44-16 82-48 114z m-15-611c0-37-13-70-40-97s-59-40-97-40h-458c-38 0-70 13-97 40s-40 60-40 97v458c0 38 13 70 40 97s59 40 97 40h458c38 0 70-13 97-40s40-59 40-97v-458z m-127 454c-7 7-15 11-25 11s-18-4-25-11l-260-261-118 118c-7 7-16 11-25 11s-18-4-25-11l-57-57c-7-7-11-15-11-25s4-18 11-25l199-200c7-7 16-10 26-10s18 3 25 10l342 343c7 7 11 15 11 25s-4 18-11 25l-57 57z" horiz-adv-x="1000" />
<glyph glyph-name="blank-empty" unicode="&#xe8fc;" d="m890 723c-31 31-69 47-113 47h-536c-44 0-82-16-113-47s-48-70-48-114v-536c0-44 16-82 48-113s69-48 113-48h536c44 0 82 16 113 48s48 69 48 113v536c0 44-16 82-48 114z m-15-611c0-37-13-70-40-97s-59-40-97-40h-458c-38 0-70 13-97 40s-40 60-40 97v458c0 38 13 70 40 97s59 40 97 40h458c38 0 70-13 97-40s40-59 40-97v-458z" horiz-adv-x="1000" />
<glyph glyph-name="link-ext-alt" unicode="&#xe8fd;" d="m0 82v536q0 66 47 113t114 48h535q67 0 114-48t47-113v-536q0-66-47-113t-114-48h-535q-67 0-114 48t-47 113z m157 89q0-14 11-25l57-57q11-10 25-10t25 10l298 298 80-80q11-11 26-11 6 0 14 3 21 10 21 33v268q0 15-10 25t-25 11h-268q-24 0-33-22-10-23 8-39l80-80-298-298q-11-11-11-26z" horiz-adv-x="857.1" />
<glyph glyph-name="export-alt" unicode="&#xe8fe;" d="m0 82v536q0 66 47 113t114 48h535q67 0 114-48t47-113v-536q0-66-47-113t-114-48h-535q-67 0-114 48t-47 113z m143 161q0-101 93-226 6-6 14-6 4 0 7 1 13 5 11 19-25 197 34 264 26 29 73 42t125 13v-89q0-24 22-33 7-3 14-3 14 0 25 11l196 196q11 11 11 25t-11 25l-196 197q-17 17-39 7-22-9-22-32v-90q-66 0-121-11t-90-28-64-44-42-53-25-61-12-62-3-62z" horiz-adv-x="857.1" />
<glyph glyph-name="pencil-squared" unicode="&#xe8ff;" d="m0 82v536q0 66 47 113t114 48h535q67 0 114-48t47-113v-536q0-66-47-113t-114-48h-535q-67 0-114 48t-47 113z m143-18h161l303 304-161 161-303-304v-161z m53 107v32l29 29 85-85-29-29h-31v53h-54z m80 98q-8 7 1 16l163 163q9 9 16 1 8-7-1-16l-163-163q-9-9-16-1z m206 295l161-160 51 51q16 16 16 38t-16 38l-85 85q-15 15-38 15t-38-15z" horiz-adv-x="857.1" />
<glyph glyph-name="search-1" unicode="&#xe900;" d="m680 256c-55-55-126-83-197-83-65 0-129 23-182 66l-51-125-130-130c-14-10-29-15-45-15-41 0-75 37-75 77 0 16 5 32 15 45l129 130 126 51c-44 52-66 117-66 182 0 152 127 277 279 277 150 0 277-128 277-278 0-72-26-144-80-197z m-319 75c34-33 78-50 122-50 92 0 170 77 170 172 0 93-79 170-170 170-94 0-172-79-172-170 0-45 17-89 50-122z" horiz-adv-x="760" />
<glyph glyph-name="google-1" unicode="&#xe901;" d="m62 94q0 46 25 84t66 64q73 46 225 56-17 23-26 41t-9 41q0 22 12 48-26-3-38-3-83 0-139 54t-57 137q0 45 20 88t55 73q43 37 102 55t122 18h232l-76-49h-74q42-35 63-74t22-90q0-40-14-72t-33-52-39-36-33-34-14-37q0-20 18-40t43-37 51-41 43-59 18-79q0-51-28-96-39-68-117-100t-166-33q-74 0-138 24t-96 76q-20 33-20 73z m104 26q0-31 13-57t34-42 48-28 56-16 57-5q32 0 62 7t55 22 41 41 15 61q0 14-3 27t-9 24-15 23-16 19-22 20-20 16-23 16-20 15q-9 1-28 1-29 0-58-4t-60-14-54-25-38-42-15-59z m59 555q0-26 6-55t17-57 29-52 42-37 54-15q20 0 43 9t37 25q29 31 29 89 0 33-9 70t-27 72-47 57-65 23q-24 0-46-11t-37-29q-26-33-26-89z" horiz-adv-x="714.3" />
<glyph glyph-name="edit" unicode="&#xe902;" d="m90 589l0-593 444 0 0 262 90 101 0-453-624 0 0 760 541 0-75-77-376 0z m749 180c35-34 32-88-3-124l-57-56 17 75-63 64-74-17 56 57c35 35 90 35 124 1z m-219-99c0 3 65 20 75 23l1 1 67-69c-4 0-23-75-23-75l-371-384-159-36-2 1 41 158z m-247-422l-45 46-35-6-23-22-10-40 46-45 39 9 23 23z" horiz-adv-x="864" />
<glyph glyph-name="archive" unicode="&#xe903;" d="m813 788h-625l-188-188v-656c0-18 14-32 31-32h938c17 0 31 14 31 32v656l-187 188z m-313-750l-312 250h187v187h250v-187h188l-313-250z m-349 625l62 62h574l62-62h-698z" horiz-adv-x="1000" />
<glyph glyph-name="inbox" unicode="&#xe904;" d="m688 663h-375l-313-375v-250c0-35 28-63 63-63h875c34 0 62 28 62 63v250l-312 375z m62-375l-125-125h-250l-125 125h-169l261 312h316l261-312h-169z" horiz-adv-x="1000" />
</font>
</defs>
</svg>
